<?xml version="1.0" encoding="UTF-8" standalone="no"?>
<!-- Created with Inkscape (http://www.inkscape.org/) -->

<svg
   xmlns:dc="http://purl.org/dc/elements/1.1/"
   xmlns:cc="http://creativecommons.org/ns#"
   xmlns:rdf="http://www.w3.org/1999/02/22-rdf-syntax-ns#"
   xmlns:svg="http://www.w3.org/2000/svg"
   xmlns="http://www.w3.org/2000/svg"
   xmlns:sodipodi="http://sodipodi.sourceforge.net/DTD/sodipodi-0.dtd"
   xmlns:inkscape="http://www.inkscape.org/namespaces/inkscape"
   id="svg2"
   version="1.1"
   inkscape:version="0.91 r13725"
   xml:space="preserve"
   width="922.2876"
   height="92.592628"
   viewBox="0 0 922.28755 92.592631"
   sodipodi:docname="snek.svg"><metadata
     id="metadata8"><rdf:RDF><cc:Work
         rdf:about=""><dc:format>image/svg+xml</dc:format><dc:type
           rdf:resource="http://purl.org/dc/dcmitype/StillImage" /><dc:title></dc:title></cc:Work></rdf:RDF></metadata><defs
     id="defs6"><clipPath
       clipPathUnits="userSpaceOnUse"
       id="clipPath20"><path
         d="m 0,1710.465 841.89,0 L 841.89,0 0,0 0,1710.465 Z"
         id="path22"
         inkscape:connector-curvature="0" /></clipPath><clipPath
       clipPathUnits="userSpaceOnUse"
       id="clipPath244"><path
         d="m 0,1710.465 841.89,0 L 841.89,0 0,0 0,1710.465 Z"
         id="path246"
         inkscape:connector-curvature="0" /></clipPath></defs><sodipodi:namedview
     pagecolor="#ffffff"
     bordercolor="#666666"
     borderopacity="1"
     objecttolerance="10"
     gridtolerance="10"
     guidetolerance="10"
     inkscape:pageopacity="0"
     inkscape:pageshadow="2"
     inkscape:window-width="1546"
     inkscape:window-height="739"
     id="namedview4"
     showgrid="false"
     inkscape:zoom="0.22075933"
     inkscape:cx="450.72902"
     inkscape:cy="-649.56426"
     inkscape:window-x="0"
     inkscape:window-y="0"
     inkscape:window-maximized="0"
     inkscape:current-layer="g10"
     fit-margin-top="0"
     fit-margin-left="0"
     fit-margin-right="0"
     fit-margin-bottom="0" /><g
     id="g10"
     inkscape:groupmode="layer"
     inkscape:label="Asset_Serpents"
     transform="matrix(1.25,0,0,-1.25,-75.45225,1808.935)"><g
       id="g248"
       transform="translate(765.2979,1417.9144)"><path
         d="m 0,0 c 0,0.98 0.316,1.791 0.968,2.477 l 0.059,0.064 c 0.464,0.502 1.15,0.757 2.038,0.757 l 17.282,0 c 3.333,0 6.478,1.311 8.858,3.692 l 0.09,0.093 c 2.32,2.417 3.599,5.562 3.599,8.855 0,3.283 -1.345,6.511 -3.689,8.855 -2.38,2.381 -5.525,3.692 -8.858,3.692 l -17.143,0 c -7.513,0 -14.624,-2.972 -20.022,-8.37 C -22.216,14.717 -25.187,7.574 -25.187,0 c 0,-7.554 3.02,-14.563 8.477,-19.71"
         style="fill:#00b25a;fill-opacity:1;fill-rule:nonzero;stroke:none"
         id="path250"
         inkscape:connector-curvature="0" /></g><g
       id="g252"
       transform="translate(118.5015,1418.6429)"><path
         d="m 0,0 0,-17.155 c 0,-1.117 0.28,-2.108 0.75,-2.651 l 0.046,-0.054 c 0.116,-0.138 0.425,-0.503 1.483,-0.503 0.981,0 1.792,0.318 2.479,0.969 l 0.064,0.06 c 0.503,0.464 0.758,1.151 0.758,2.04 L 5.58,0 c 0,3.335 1.312,6.483 3.694,8.865 l 0.093,0.091 c 2.419,2.322 5.566,3.601 8.862,3.601 3.286,0 6.517,-1.347 8.862,-3.692 C 29.474,6.483 30.786,3.335 30.786,0 l 0,-17.155 c 0,-7.519 -2.974,-14.636 -8.377,-20.038 -5.401,-5.401 -12.551,-8.376 -20.13,-8.376 -7.56,0 -14.573,3.023 -19.726,8.485 -5.004,5.247 -7.76,12.324 -7.76,19.929 l 0,17.155 c 0,3.394 1.279,6.542 3.601,8.864 2.381,2.381 5.529,3.693 8.863,3.693 3.323,0 6.566,-1.329 8.91,-3.647 C -1.396,6.546 0,3.303 0,0"
         style="fill:#00b25a;fill-opacity:1;fill-rule:nonzero;stroke:none"
         id="path254"
         inkscape:connector-curvature="0" /></g><g
       id="g256"
       transform="translate(93.2808,1418.641)"><path
         d="M 0,0 C 0,0.98 -0.317,1.792 -0.969,2.479 L -1.028,2.542 C -1.493,3.045 -2.179,3.3 -3.068,3.3 l -17.295,0 c -3.335,0 -6.483,1.312 -8.864,3.695 l -0.091,0.093 c -2.322,2.419 -3.601,5.566 -3.601,8.862 0,3.285 1.346,6.516 3.692,8.862 2.381,2.382 5.529,3.695 8.864,3.695 l 17.155,0 c 7.52,0 14.636,-2.975 20.039,-8.377 5.401,-5.401 8.376,-12.551 8.376,-20.13 0,-7.56 -3.023,-14.574 -8.485,-19.726"
         style="fill:#00b25a;fill-opacity:1;fill-rule:nonzero;stroke:none"
         id="path258"
         inkscape:connector-curvature="0" /></g><g
       id="g260"
       transform="translate(172.2817,1437.9144)"><path
         d="m 0,0 c 5.005,-5.245 7.761,-12.322 7.761,-19.929 l 0,-17.154 c 0,-3.395 -1.279,-6.542 -3.601,-8.865 -2.382,-2.382 -5.53,-3.693 -8.864,-3.693 -3.322,0 -6.566,1.329 -8.909,3.647 -2.437,2.364 -3.833,5.607 -3.833,8.911 l 0,17.154 c 0,1.117 -0.28,2.109 -0.749,2.651 l -0.046,0.053 c -0.116,0.138 -0.426,0.504 -1.485,0.504 -0.98,0 -1.791,-0.317 -2.478,-0.969 l -0.064,-0.06 c -0.503,-0.464 -0.757,-1.15 -0.757,-2.04 l 0,-17.293 c 0,-3.334 -1.312,-6.483 -3.694,-8.865 l -0.094,-0.092 c -2.42,-2.322 -5.567,-3.601 -8.862,-3.601 -3.285,0 -6.516,1.346 -8.864,3.693 -2.382,2.382 -3.693,5.531 -3.693,8.865 l 0,17.154 c 0,7.519 2.975,14.636 8.376,20.037 5.402,5.402 12.551,8.377 20.13,8.377 C -12.166,8.485 -5.151,5.463 0,0"
         style="fill:#ffc519;fill-opacity:1;fill-rule:nonzero;stroke:none"
         id="path262"
         inkscape:connector-curvature="0" /></g><g
       id="g264"
       transform="translate(77.8037,1429.3319)"><path
         d="m 0,0 c 0,1.735 -1.406,3.142 -3.141,3.142 -1.735,0 -3.142,-1.407 -3.142,-3.142 0,-1.735 1.407,-3.142 3.142,-3.142 C -1.406,-3.142 0,-1.735 0,0"
         style="fill:#ffffff;fill-opacity:1;fill-rule:nonzero;stroke:none"
         id="path266"
         inkscape:connector-curvature="0" /></g><g
       id="g268"
       transform="translate(77.8037,1440.3641)"><path
         d="m 0,0 c 0,1.735 -1.406,3.141 -3.141,3.141 -1.735,0 -3.142,-1.406 -3.142,-3.141 0,-1.735 1.407,-3.142 3.142,-3.142 C -1.406,-3.142 0,-1.735 0,0"
         style="fill:#ffffff;fill-opacity:1;fill-rule:nonzero;stroke:none"
         id="path270"
         inkscape:connector-curvature="0" /></g><g
       id="g272"
       transform="translate(180.0547,1418.6429)"><path
         d="m 0,0 0,-17.155 c 0,-1.117 0.281,-2.108 0.75,-2.651 l 0.046,-0.054 c 0.116,-0.138 0.425,-0.503 1.483,-0.503 0.981,0 1.792,0.318 2.479,0.969 l 0.064,0.06 c 0.503,0.464 0.758,1.151 0.758,2.04 L 5.58,0 c 0,3.335 1.312,6.483 3.694,8.865 l 0.093,0.091 c 2.42,2.322 5.567,3.601 8.862,3.601 3.286,0 6.517,-1.347 8.862,-3.692 C 29.474,6.483 30.786,3.335 30.786,0 l 0,-17.155 c 0,-7.519 -2.974,-14.636 -8.376,-20.038 -5.402,-5.401 -12.551,-8.376 -20.131,-8.376 -7.559,0 -14.573,3.023 -19.725,8.485 -5.005,5.247 -7.761,12.324 -7.761,19.929 l 0,17.155 c 0,3.394 1.279,6.542 3.601,8.864 2.382,2.381 5.529,3.693 8.863,3.693 3.323,0 6.567,-1.329 8.91,-3.647 C -1.396,6.546 0,3.303 0,0"
         style="fill:#f3703a;fill-opacity:1;fill-rule:nonzero;stroke:none"
         id="path274"
         inkscape:connector-curvature="0" /></g><g
       id="g276"
       transform="translate(233.8789,1437.9144)"><path
         d="m 0,0 c 5.004,-5.245 7.76,-12.322 7.76,-19.929 l 0,-17.154 c 0,-3.395 -1.279,-6.542 -3.6,-8.865 -2.382,-2.382 -5.53,-3.693 -8.864,-3.693 -3.322,0 -6.566,1.329 -8.91,3.647 -2.436,2.364 -3.832,5.607 -3.832,8.911 l 0,17.154 c 0,1.117 -0.281,2.109 -0.75,2.651 l -0.045,0.053 c -0.116,0.138 -0.426,0.504 -1.485,0.504 -0.98,0 -1.791,-0.317 -2.478,-0.969 l -0.065,-0.06 c -0.502,-0.464 -0.756,-1.15 -0.756,-2.04 l 0,-17.293 c 0,-3.334 -1.312,-6.483 -3.694,-8.865 l -0.094,-0.092 c -2.42,-2.322 -5.567,-3.601 -8.863,-3.601 -3.285,0 -6.516,1.346 -8.863,3.693 -2.382,2.382 -3.694,5.531 -3.694,8.865 l 0,17.154 c 0,7.519 2.975,14.636 8.377,20.037 5.401,5.402 12.551,8.377 20.13,8.377 C -12.166,8.485 -5.152,5.463 0,0"
         style="fill:#e11d43;fill-opacity:1;fill-rule:nonzero;stroke:none"
         id="path278"
         inkscape:connector-curvature="0" /></g><g
       id="g280"
       transform="translate(241.6519,1418.6429)"><path
         d="m 0,0 0,-17.155 c 0,-1.117 0.28,-2.108 0.75,-2.651 l 0.046,-0.054 c 0.116,-0.138 0.425,-0.503 1.483,-0.503 0.981,0 1.792,0.318 2.479,0.969 l 0.064,0.06 c 0.503,0.464 0.757,1.151 0.757,2.04 L 5.579,0 c 0,3.335 1.313,6.483 3.695,8.865 l 0.093,0.091 c 2.419,2.322 5.566,3.601 8.862,3.601 3.286,0 6.516,-1.347 8.862,-3.692 C 29.474,6.483 30.786,3.335 30.786,0 l 0,-17.155 c 0,-7.519 -2.974,-14.636 -8.377,-20.038 -5.401,-5.401 -12.551,-8.376 -20.13,-8.376 -7.56,0 -14.573,3.023 -19.726,8.485 -5.004,5.247 -7.761,12.324 -7.761,19.929 l 0,17.155 c 0,3.394 1.28,6.542 3.602,8.864 2.381,2.381 5.529,3.693 8.863,3.693 3.323,0 6.566,-1.329 8.91,-3.647 C -1.397,6.546 0,3.303 0,0"
         style="fill:#5b57a6;fill-opacity:1;fill-rule:nonzero;stroke:none"
         id="path282"
         inkscape:connector-curvature="0" /></g><g
       id="g284"
       transform="translate(295.4756,1437.9144)"><path
         d="m 0,0 c 5.005,-5.245 7.761,-12.322 7.761,-19.929 l 0,-17.154 c 0,-3.395 -1.28,-6.542 -3.601,-8.865 -2.382,-2.382 -5.53,-3.693 -8.864,-3.693 -3.322,0 -6.566,1.329 -8.91,3.647 -2.436,2.364 -3.832,5.607 -3.832,8.911 l 0,17.154 c 0,1.117 -0.281,2.109 -0.75,2.651 l -0.045,0.053 c -0.116,0.138 -0.426,0.504 -1.485,0.504 -0.98,0 -1.791,-0.317 -2.478,-0.969 l -0.065,-0.06 c -0.502,-0.464 -0.756,-1.15 -0.756,-2.04 l 0,-17.293 c 0,-3.334 -1.312,-6.483 -3.694,-8.865 l -0.094,-0.092 c -2.42,-2.322 -5.567,-3.601 -8.863,-3.601 -3.285,0 -6.515,1.346 -8.863,3.693 -2.382,2.382 -3.694,5.531 -3.694,8.865 l 0,17.154 c 0,7.519 2.975,14.636 8.377,20.037 5.401,5.402 12.551,8.377 20.13,8.377 C -12.166,8.485 -5.152,5.463 0,0"
         style="fill:#00b25a;fill-opacity:1;fill-rule:nonzero;stroke:none"
         id="path286"
         inkscape:connector-curvature="0" /></g><g
       id="g288"
       transform="translate(303.2485,1418.6429)"><path
         d="m 0,0 0,-17.155 c 0,-1.117 0.28,-2.108 0.75,-2.651 l 0.046,-0.054 c 0.116,-0.138 0.425,-0.503 1.483,-0.503 0.981,0 1.792,0.318 2.479,0.969 l 0.064,0.06 c 0.503,0.464 0.758,1.151 0.758,2.04 L 5.58,0 c 0,3.335 1.312,6.483 3.694,8.865 l 0.093,0.091 c 2.419,2.322 5.566,3.601 8.862,3.601 3.286,0 6.517,-1.347 8.862,-3.692 C 29.474,6.483 30.786,3.335 30.786,0 l 0,-17.155 c 0,-7.519 -2.974,-14.636 -8.377,-20.038 -5.401,-5.401 -12.551,-8.376 -20.13,-8.376 -7.56,0 -14.573,3.023 -19.726,8.485 -5.004,5.247 -7.76,12.324 -7.76,19.929 l 0,17.155 c 0,3.394 1.279,6.542 3.601,8.864 2.381,2.381 5.529,3.693 8.863,3.693 3.323,0 6.566,-1.329 8.91,-3.647 C -1.396,6.546 0,3.303 0,0"
         style="fill:#ffc519;fill-opacity:1;fill-rule:nonzero;stroke:none"
         id="path290"
         inkscape:connector-curvature="0" /></g><g
       id="g292"
       transform="translate(357.0723,1437.9144)"><path
         d="m 0,0 c 5.005,-5.245 7.761,-12.322 7.761,-19.929 l 0,-17.154 c 0,-3.395 -1.28,-6.542 -3.601,-8.865 -2.382,-2.382 -5.53,-3.693 -8.864,-3.693 -3.322,0 -6.566,1.329 -8.91,3.647 -2.436,2.364 -3.832,5.607 -3.832,8.911 l 0,17.154 c 0,1.117 -0.281,2.109 -0.75,2.651 l -0.045,0.053 c -0.116,0.138 -0.426,0.504 -1.485,0.504 -0.98,0 -1.791,-0.317 -2.478,-0.969 l -0.064,-0.06 c -0.503,-0.464 -0.757,-1.15 -0.757,-2.04 l 0,-17.293 c 0,-3.334 -1.312,-6.483 -3.694,-8.865 l -0.094,-0.092 c -2.42,-2.322 -5.567,-3.601 -8.862,-3.601 -3.285,0 -6.516,1.346 -8.864,3.693 -2.382,2.382 -3.693,5.531 -3.693,8.865 l 0,17.154 c 0,7.519 2.974,14.636 8.376,20.037 5.401,5.402 12.551,8.377 20.13,8.377 C -12.166,8.485 -5.151,5.463 0,0"
         style="fill:#f3703a;fill-opacity:1;fill-rule:nonzero;stroke:none"
         id="path294"
         inkscape:connector-curvature="0" /></g><g
       id="g296"
       transform="translate(364.8452,1418.6429)"><path
         d="m 0,0 0,-17.155 c 0,-1.117 0.281,-2.108 0.75,-2.651 l 0.046,-0.054 c 0.116,-0.138 0.425,-0.503 1.483,-0.503 0.981,0 1.792,0.318 2.479,0.969 l 0.064,0.06 c 0.503,0.464 0.758,1.151 0.758,2.04 L 5.58,0 c 0,3.335 1.312,6.483 3.694,8.865 l 0.093,0.091 c 2.419,2.322 5.567,3.601 8.862,3.601 3.286,0 6.517,-1.347 8.862,-3.692 C 29.474,6.483 30.786,3.335 30.786,0 l 0,-17.155 c 0,-7.519 -2.974,-14.636 -8.376,-20.038 -5.402,-5.401 -12.551,-8.376 -20.131,-8.376 -7.56,0 -14.573,3.023 -19.725,8.485 -5.005,5.247 -7.761,12.324 -7.761,19.929 l 0,17.155 c 0,3.394 1.279,6.542 3.601,8.864 2.381,2.381 5.529,3.693 8.863,3.693 3.323,0 6.567,-1.329 8.91,-3.647 C -1.396,6.546 0,3.303 0,0"
         style="fill:#e11d43;fill-opacity:1;fill-rule:nonzero;stroke:none"
         id="path298"
         inkscape:connector-curvature="0" /></g><g
       id="g300"
       transform="translate(418.6689,1437.9144)"><path
         d="m 0,0 c 5.005,-5.245 7.761,-12.322 7.761,-19.929 l 0,-17.154 c 0,-3.395 -1.28,-6.542 -3.601,-8.865 -2.382,-2.382 -5.53,-3.693 -8.864,-3.693 -3.322,0 -6.566,1.329 -8.909,3.647 -2.437,2.364 -3.833,5.607 -3.833,8.911 l 0,17.154 c 0,1.117 -0.28,2.109 -0.749,2.651 l -0.046,0.053 c -0.116,0.138 -0.426,0.504 -1.485,0.504 -0.98,0 -1.791,-0.317 -2.478,-0.969 l -0.064,-0.06 c -0.503,-0.464 -0.757,-1.15 -0.757,-2.04 l 0,-17.293 c 0,-3.334 -1.312,-6.483 -3.694,-8.865 l -0.094,-0.092 c -2.42,-2.322 -5.567,-3.601 -8.862,-3.601 -3.285,0 -6.516,1.346 -8.864,3.693 -2.382,2.382 -3.693,5.531 -3.693,8.865 l 0,17.154 c 0,7.519 2.975,14.636 8.376,20.037 5.402,5.402 12.551,8.377 20.13,8.377 C -12.166,8.485 -5.151,5.463 0,0"
         style="fill:#5b57a6;fill-opacity:1;fill-rule:nonzero;stroke:none"
         id="path302"
         inkscape:connector-curvature="0" /></g><g
       id="g304"
       transform="translate(426.4424,1418.6429)"><path
         d="m 0,0 0,-17.155 c 0,-1.117 0.28,-2.108 0.749,-2.651 l 0.047,-0.054 c 0.116,-0.138 0.425,-0.503 1.483,-0.503 0.981,0 1.791,0.318 2.479,0.969 l 0.063,0.06 c 0.503,0.464 0.758,1.151 0.758,2.04 L 5.579,0 c 0,3.335 1.313,6.483 3.694,8.865 l 0.094,0.091 c 2.419,2.322 5.566,3.601 8.862,3.601 3.286,0 6.516,-1.347 8.862,-3.692 C 29.474,6.483 30.786,3.335 30.786,0 l 0,-17.155 c 0,-7.519 -2.974,-14.636 -8.377,-20.038 -5.401,-5.401 -12.551,-8.376 -20.13,-8.376 -7.56,0 -14.574,3.023 -19.726,8.485 -5.004,5.247 -7.761,12.324 -7.761,19.929 l 0,17.155 c 0,3.394 1.279,6.542 3.601,8.864 2.382,2.381 5.53,3.693 8.864,3.693 3.322,0 6.566,-1.329 8.91,-3.647 C -1.396,6.546 0,3.303 0,0"
         style="fill:#00b25a;fill-opacity:1;fill-rule:nonzero;stroke:none"
         id="path306"
         inkscape:connector-curvature="0" /></g><g
       id="g308"
       transform="translate(480.2656,1437.9144)"><path
         d="m 0,0 c 5.005,-5.245 7.761,-12.322 7.761,-19.929 l 0,-17.154 c 0,-3.395 -1.28,-6.542 -3.601,-8.865 -2.382,-2.382 -5.529,-3.693 -8.863,-3.693 -3.322,0 -6.567,1.329 -8.91,3.647 -2.437,2.364 -3.832,5.607 -3.832,8.911 l 0,17.154 c 0,1.117 -0.282,2.109 -0.75,2.651 l -0.045,0.053 c -0.117,0.138 -0.427,0.504 -1.486,0.504 -0.98,0 -1.791,-0.317 -2.478,-0.969 l -0.065,-0.06 c -0.502,-0.464 -0.756,-1.15 -0.756,-2.04 l 0,-17.293 c 0,-3.334 -1.312,-6.483 -3.694,-8.865 l -0.093,-0.092 c -2.42,-2.322 -5.568,-3.601 -8.863,-3.601 -3.286,0 -6.516,1.346 -8.864,3.693 -2.382,2.382 -3.693,5.531 -3.693,8.865 l 0,17.154 c 0,7.519 2.974,14.636 8.377,20.037 5.401,5.402 12.55,8.377 20.129,8.377 C -12.166,8.485 -5.151,5.463 0,0"
         style="fill:#ffc519;fill-opacity:1;fill-rule:nonzero;stroke:none"
         id="path310"
         inkscape:connector-curvature="0" /></g><g
       id="g312"
       transform="translate(488.0391,1418.6429)"><path
         d="m 0,0 0,-17.155 c 0,-1.117 0.28,-2.108 0.749,-2.651 l 0.047,-0.054 c 0.116,-0.138 0.425,-0.503 1.483,-0.503 0.981,0 1.792,0.318 2.479,0.969 l 0.063,0.06 c 0.503,0.464 0.758,1.151 0.758,2.04 L 5.579,0 c 0,3.335 1.313,6.483 3.695,8.865 l 0.093,0.091 c 2.419,2.322 5.567,3.601 8.862,3.601 3.286,0 6.516,-1.347 8.862,-3.692 C 29.474,6.483 30.786,3.335 30.786,0 l 0,-17.155 c 0,-7.519 -2.974,-14.636 -8.377,-20.038 -5.401,-5.401 -12.551,-8.376 -20.13,-8.376 -7.56,0 -14.574,3.023 -19.726,8.485 -5.004,5.247 -7.76,12.324 -7.76,19.929 l 0,17.155 c 0,3.394 1.278,6.542 3.601,8.864 2.381,2.381 5.529,3.693 8.863,3.693 3.322,0 6.566,-1.329 8.91,-3.647 C -1.396,6.546 0,3.303 0,0"
         style="fill:#f3703a;fill-opacity:1;fill-rule:nonzero;stroke:none"
         id="path314"
         inkscape:connector-curvature="0" /></g><g
       id="g316"
       transform="translate(541.8623,1437.9144)"><path
         d="m 0,0 c 5.005,-5.245 7.761,-12.322 7.761,-19.929 l 0,-17.154 c 0,-3.395 -1.279,-6.542 -3.601,-8.865 -2.382,-2.382 -5.529,-3.693 -8.863,-3.693 -3.322,0 -6.567,1.329 -8.91,3.647 -2.437,2.364 -3.832,5.607 -3.832,8.911 l 0,17.154 c 0,1.117 -0.282,2.109 -0.75,2.651 l -0.045,0.053 c -0.117,0.138 -0.427,0.504 -1.486,0.504 -0.98,0 -1.791,-0.317 -2.478,-0.969 l -0.064,-0.06 c -0.503,-0.464 -0.757,-1.15 -0.757,-2.04 l 0,-17.293 c 0,-3.334 -1.312,-6.483 -3.694,-8.865 l -0.093,-0.092 c -2.42,-2.322 -5.568,-3.601 -8.863,-3.601 -3.285,0 -6.516,1.346 -8.864,3.693 -2.382,2.382 -3.693,5.531 -3.693,8.865 l 0,17.154 c 0,7.519 2.975,14.636 8.377,20.037 5.401,5.402 12.55,8.377 20.129,8.377 C -12.166,8.485 -5.151,5.463 0,0"
         style="fill:#e11d43;fill-opacity:1;fill-rule:nonzero;stroke:none"
         id="path318"
         inkscape:connector-curvature="0" /></g><g
       id="g320"
       transform="translate(549.6357,1418.6429)"><path
         d="m 0,0 0,-17.155 c 0,-1.117 0.28,-2.108 0.75,-2.651 l 0.046,-0.054 c 0.116,-0.138 0.425,-0.503 1.483,-0.503 0.981,0 1.792,0.318 2.479,0.969 l 0.063,0.06 c 0.503,0.464 0.758,1.151 0.758,2.04 L 5.579,0 c 0,3.335 1.313,6.483 3.695,8.865 l 0.093,0.091 c 2.419,2.322 5.567,3.601 8.862,3.601 3.286,0 6.516,-1.347 8.862,-3.692 C 29.474,6.483 30.786,3.335 30.786,0 l 0,-17.155 c 0,-7.519 -2.974,-14.636 -8.377,-20.038 -5.401,-5.401 -12.551,-8.376 -20.13,-8.376 -7.559,0 -14.574,3.023 -19.725,8.485 -5.005,5.247 -7.761,12.324 -7.761,19.929 l 0,17.155 c 0,3.394 1.278,6.542 3.601,8.864 2.381,2.381 5.529,3.693 8.863,3.693 3.322,0 6.566,-1.329 8.91,-3.647 C -1.396,6.546 0,3.303 0,0"
         style="fill:#5b57a6;fill-opacity:1;fill-rule:nonzero;stroke:none"
         id="path322"
         inkscape:connector-curvature="0" /></g><g
       id="g324"
       transform="translate(603.46,1437.9144)"><path
         d="m 0,0 c 5.004,-5.245 7.76,-12.322 7.76,-19.929 l 0,-17.154 c 0,-3.395 -1.279,-6.542 -3.601,-8.865 -2.382,-2.382 -5.529,-3.693 -8.863,-3.693 -3.322,0 -6.566,1.329 -8.91,3.647 -2.437,2.364 -3.832,5.607 -3.832,8.911 l 0,17.154 c 0,1.117 -0.281,2.109 -0.75,2.651 l -0.045,0.053 c -0.116,0.138 -0.427,0.504 -1.486,0.504 -0.979,0 -1.791,-0.317 -2.477,-0.969 l -0.065,-0.06 c -0.502,-0.464 -0.757,-1.15 -0.757,-2.04 l 0,-17.293 c 0,-3.334 -1.312,-6.483 -3.694,-8.865 l -0.093,-0.092 c -2.42,-2.322 -5.568,-3.601 -8.863,-3.601 -3.285,0 -6.516,1.346 -8.863,3.693 -2.383,2.382 -3.694,5.531 -3.694,8.865 l 0,17.154 c 0,7.519 2.975,14.636 8.377,20.037 5.401,5.402 12.55,8.377 20.129,8.377 C -12.166,8.485 -5.152,5.463 0,0"
         style="fill:#00b25a;fill-opacity:1;fill-rule:nonzero;stroke:none"
         id="path326"
         inkscape:connector-curvature="0" /></g><g
       id="g328"
       transform="translate(611.2324,1418.6429)"><path
         d="m 0,0 0,-17.155 c 0,-1.117 0.28,-2.108 0.75,-2.651 l 0.046,-0.054 c 0.116,-0.138 0.425,-0.503 1.483,-0.503 0.981,0 1.792,0.318 2.479,0.969 l 0.064,0.06 c 0.503,0.464 0.757,1.151 0.757,2.04 L 5.579,0 c 0,3.335 1.313,6.483 3.695,8.865 l 0.093,0.091 c 2.419,2.322 5.567,3.601 8.862,3.601 3.286,0 6.516,-1.347 8.863,-3.692 C 29.474,6.483 30.786,3.335 30.786,0 l 0,-17.155 c 0,-7.519 -2.974,-14.636 -8.377,-20.038 -5.401,-5.401 -12.551,-8.376 -20.13,-8.376 -7.559,0 -14.573,3.023 -19.725,8.485 -5.005,5.247 -7.761,12.324 -7.761,19.929 l 0,17.155 c 0,3.394 1.279,6.542 3.601,8.864 2.381,2.381 5.529,3.693 8.863,3.693 3.323,0 6.566,-1.329 8.91,-3.647 C -1.396,6.546 0,3.303 0,0"
         style="fill:#ffc519;fill-opacity:1;fill-rule:nonzero;stroke:none"
         id="path330"
         inkscape:connector-curvature="0" /></g><g
       id="g332"
       transform="translate(665.0566,1437.9144)"><path
         d="m 0,0 c 5.004,-5.245 7.761,-12.322 7.761,-19.929 l 0,-17.154 c 0,-3.395 -1.28,-6.542 -3.602,-8.865 -2.382,-2.382 -5.529,-3.693 -8.863,-3.693 -3.322,0 -6.566,1.329 -8.91,3.647 -2.437,2.364 -3.832,5.607 -3.832,8.911 l 0,17.154 c 0,1.117 -0.281,2.109 -0.75,2.651 l -0.045,0.053 c -0.116,0.138 -0.426,0.504 -1.486,0.504 -0.979,0 -1.791,-0.317 -2.477,-0.969 l -0.065,-0.06 c -0.502,-0.464 -0.756,-1.15 -0.756,-2.04 l 0,-17.293 c 0,-3.334 -1.313,-6.483 -3.695,-8.865 l -0.093,-0.092 c -2.42,-2.322 -5.567,-3.601 -8.863,-3.601 -3.285,0 -6.515,1.346 -8.863,3.693 -2.382,2.382 -3.694,5.531 -3.694,8.865 l 0,17.154 c 0,7.519 2.975,14.636 8.377,20.037 5.401,5.402 12.55,8.377 20.129,8.377 C -12.166,8.485 -5.152,5.463 0,0"
         style="fill:#f3703a;fill-opacity:1;fill-rule:nonzero;stroke:none"
         id="path334"
         inkscape:connector-curvature="0" /></g><g
       id="g336"
       transform="translate(672.8291,1418.6429)"><path
         d="m 0,0 0,-17.155 c 0,-1.117 0.28,-2.108 0.75,-2.651 l 0.046,-0.054 c 0.116,-0.138 0.426,-0.503 1.483,-0.503 0.981,0 1.792,0.318 2.479,0.969 l 0.064,0.06 c 0.503,0.464 0.757,1.151 0.757,2.04 L 5.579,0 c 0,3.335 1.313,6.483 3.695,8.865 l 0.093,0.091 c 2.419,2.322 5.567,3.601 8.862,3.601 3.286,0 6.517,-1.347 8.863,-3.692 C 29.474,6.483 30.786,3.335 30.786,0 l 0,-17.155 c 0,-7.519 -2.974,-14.636 -8.377,-20.038 -5.401,-5.401 -12.551,-8.376 -20.13,-8.376 -7.559,0 -14.573,3.023 -19.725,8.485 -5.004,5.247 -7.761,12.324 -7.761,19.929 l 0,17.155 c 0,3.394 1.279,6.542 3.601,8.864 2.381,2.381 5.529,3.693 8.863,3.693 3.323,0 6.566,-1.329 8.91,-3.647 C -1.396,6.546 0,3.303 0,0"
         style="fill:#e11d43;fill-opacity:1;fill-rule:nonzero;stroke:none"
         id="path338"
         inkscape:connector-curvature="0" /></g><g
       id="g340"
       transform="translate(726.6533,1437.9144)"><path
         d="m 0,0 c 5.005,-5.245 7.761,-12.322 7.761,-19.929 l 0,-17.154 c 0,-3.395 -1.28,-6.542 -3.601,-8.865 -2.383,-2.382 -5.53,-3.693 -8.864,-3.693 -3.322,0 -6.566,1.329 -8.91,3.647 -2.436,2.364 -3.832,5.607 -3.832,8.911 l 0,17.154 c 0,1.117 -0.281,2.109 -0.75,2.651 l -0.045,0.053 c -0.116,0.138 -0.426,0.504 -1.486,0.504 -0.979,0 -1.791,-0.317 -2.477,-0.969 l -0.065,-0.06 c -0.502,-0.464 -0.756,-1.15 -0.756,-2.04 l 0,-17.293 c 0,-3.334 -1.312,-6.483 -3.695,-8.865 l -0.093,-0.092 c -2.42,-2.322 -5.567,-3.601 -8.863,-3.601 -3.285,0 -6.515,1.346 -8.863,3.693 -2.382,2.382 -3.693,5.531 -3.693,8.865 l 0,17.154 c 0,7.519 2.974,14.636 8.376,20.037 5.401,5.402 12.55,8.377 20.129,8.377 C -12.166,8.485 -5.151,5.463 0,0"
         style="fill:#5b57a6;fill-opacity:1;fill-rule:nonzero;stroke:none"
         id="path342"
         inkscape:connector-curvature="0" /></g><g
       id="g344"
       transform="translate(734.4258,1418.6429)"><path
         d="m 0,0 0,-17.155 c 0,-1.117 0.28,-2.108 0.75,-2.651 l 0.046,-0.054 c 0.116,-0.138 0.426,-0.503 1.483,-0.503 0.982,0 1.792,0.318 2.48,0.969 l 0.063,0.06 c 0.503,0.464 0.758,1.151 0.758,2.04 L 5.58,0 c 0,3.335 1.312,6.483 3.694,8.865 l 0.093,0.091 c 2.419,2.322 5.567,3.601 8.862,3.601 3.286,0 6.517,-1.347 8.863,-3.692 C 29.474,6.483 30.786,3.335 30.786,0 l 0,-17.155 c 0,-7.519 -2.974,-14.636 -8.376,-20.038 -5.402,-5.401 -12.552,-8.376 -20.131,-8.376 -7.559,0 -14.573,3.023 -19.725,8.485 -5.004,5.247 -7.761,12.324 -7.761,19.929 l 0,17.155 c 0,3.394 1.279,6.542 3.601,8.864 2.381,2.381 5.529,3.693 8.863,3.693 3.323,0 6.567,-1.329 8.91,-3.647 C -1.396,6.546 0,3.303 0,0"
         style="fill:#00b25a;fill-opacity:1;fill-rule:nonzero;stroke:none"
         id="path346"
         inkscape:connector-curvature="0" /></g></g></svg>