<?xml version="1.0" encoding="UTF-8"?>
<svg version="1.1" viewBox="0 0 3410 92.593" xml:space="preserve" xmlns="http://www.w3.org/2000/svg" xmlns:cc="http://creativecommons.org/ns#" xmlns:dc="http://purl.org/dc/elements/1.1/" xmlns:rdf="http://www.w3.org/1999/02/22-rdf-syntax-ns#">
    <metadata>
        <rdf:RDF>
            <cc:Work rdf:about="">
                <dc:format>image/svg+xml</dc:format>
                <dc:type rdf:resource="http://purl.org/dc/dcmitype/StillImage" />
                <dc:title />
            </cc:Work>
        </rdf:RDF>
    </metadata>
    <g transform="matrix(1.25 0 0 -1.25 -75.452 1808.9)">
        <g transform="translate(118.5 1418.6)">
            <path d="m0 0v-17.155c0-1.117 0.28-2.108 0.75-2.651l0.046-0.054c0.116-0.138 0.425-0.503 1.483-0.503 0.981 0 1.792 0.318 2.479 0.969l0.064 0.06c0.503 0.464 0.758 1.151 0.758 2.04v17.294c0 3.335 1.312 6.483 3.694 8.865l0.093 0.091c2.419 2.322 5.566 3.601 8.862 3.601 3.286 0 6.517-1.347 8.862-3.692 2.383-2.382 3.695-5.53 3.695-8.865v-17.155c0-7.519-2.974-14.636-8.377-20.038-5.401-5.401-12.551-8.376-20.13-8.376-7.56 0-14.573 3.023-19.726 8.485-5.004 5.247-7.76 12.324-7.76 19.929v17.155c0 3.394 1.279 6.542 3.601 8.864 2.381 2.381 5.529 3.693 8.863 3.693 3.323 0 6.566-1.329 8.91-3.647 2.437-2.364 3.833-5.607 3.833-8.91" fill="#00b25a" />
        </g>
        <g transform="translate(93.281 1418.6)">
            <path d="m0 0c0 0.98-0.317 1.792-0.969 2.479l-0.059 0.063c-0.465 0.503-1.151 0.758-2.04 0.758h-17.295c-3.335 0-6.483 1.312-8.864 3.695l-0.091 0.093c-2.322 2.419-3.601 5.566-3.601 8.862 0 3.285 1.346 6.516 3.692 8.862 2.381 2.382 5.529 3.695 8.864 3.695h17.155c7.52 0 14.636-2.975 20.039-8.377 5.401-5.401 8.376-12.551 8.376-20.13 0-7.56-3.023-14.574-8.485-19.726" fill="#00b25a" />
        </g>
        <g transform="translate(77.804 1429.3)">
            <path d="m0 0c0 1.735-1.406 3.142-3.141 3.142s-3.142-1.407-3.142-3.142 1.407-3.142 3.142-3.142 3.141 1.407 3.141 3.142" fill="#fff" />
        </g>
        <g transform="translate(77.804 1440.4)">
            <path d="m0 0c0 1.735-1.406 3.141-3.141 3.141s-3.142-1.406-3.142-3.141 1.407-3.142 3.142-3.142 3.141 1.407 3.141 3.142" fill="#fff" />
        </g>
<g transform="translate(172 1437.9)">
        <path d="m0 0c5.005-5.245 7.761-12.322 7.761-19.929v-17.154c0-3.395-1.28-6.542-3.601-8.865-2.383-2.382-5.53-3.693-8.864-3.693-3.322 0-6.566 1.329-8.91 3.647-2.436 2.364-3.832 5.607-3.832 8.911v17.154c0 1.117-0.281 2.109-0.75 2.651l-0.045 0.053c-0.116 0.138-0.426 0.504-1.486 0.504-0.979 0-1.791-0.317-2.477-0.969l-0.065-0.06c-0.502-0.464-0.756-1.15-0.756-2.04v-17.293c0-3.334-1.312-6.483-3.695-8.865l-0.093-0.092c-2.42-2.322-5.567-3.601-8.863-3.601-3.285 0-6.515 1.346-8.863 3.693-2.382 2.382-3.693 5.531-3.693 8.865v17.154c0 7.519 2.974 14.636 8.376 20.037 5.401 5.402 12.55 8.377 20.129 8.377 7.561 0 14.576-3.022 19.727-8.485" fill="#ffc519" />
    </g>
<g transform="translate(180 1418.6)">
    <path d="m0 0v-17.155c0-1.117 0.28-2.108 0.75-2.651l0.046-0.054c0.116-0.138 0.426-0.503 1.483-0.503 0.982 0 1.792 0.318 2.48 0.969l0.063 0.06c0.503 0.464 0.758 1.151 0.758 2.04v17.294c0 3.335 1.312 6.483 3.694 8.865l0.093 0.091c2.419 2.322 5.567 3.601 8.862 3.601 3.286 0 6.517-1.347 8.863-3.692 2.382-2.382 3.694-5.53 3.694-8.865v-17.155c0-7.519-2.974-14.636-8.376-20.038-5.402-5.401-12.552-8.376-20.131-8.376-7.559 0-14.573 3.023-19.725 8.485-5.004 5.247-7.761 12.324-7.761 19.929v17.155c0 3.394 1.279 6.542 3.601 8.864 2.381 2.381 5.529 3.693 8.863 3.693 3.323 0 6.567-1.329 8.91-3.647 2.437-2.364 3.833-5.607 3.833-8.91" fill="#f3703a" />
</g>
<g transform="translate(234 1437.9)">
        <path d="m0 0c5.005-5.245 7.761-12.322 7.761-19.929v-17.154c0-3.395-1.28-6.542-3.601-8.865-2.383-2.382-5.53-3.693-8.864-3.693-3.322 0-6.566 1.329-8.91 3.647-2.436 2.364-3.832 5.607-3.832 8.911v17.154c0 1.117-0.281 2.109-0.75 2.651l-0.045 0.053c-0.116 0.138-0.426 0.504-1.486 0.504-0.979 0-1.791-0.317-2.477-0.969l-0.065-0.06c-0.502-0.464-0.756-1.15-0.756-2.04v-17.293c0-3.334-1.312-6.483-3.695-8.865l-0.093-0.092c-2.42-2.322-5.567-3.601-8.863-3.601-3.285 0-6.515 1.346-8.863 3.693-2.382 2.382-3.693 5.531-3.693 8.865v17.154c0 7.519 2.974 14.636 8.376 20.037 5.401 5.402 12.55 8.377 20.129 8.377 7.561 0 14.576-3.022 19.727-8.485" fill="#e11d43" />
    </g>
<g transform="translate(242 1418.6)">
    <path d="m0 0v-17.155c0-1.117 0.28-2.108 0.75-2.651l0.046-0.054c0.116-0.138 0.426-0.503 1.483-0.503 0.982 0 1.792 0.318 2.48 0.969l0.063 0.06c0.503 0.464 0.758 1.151 0.758 2.04v17.294c0 3.335 1.312 6.483 3.694 8.865l0.093 0.091c2.419 2.322 5.567 3.601 8.862 3.601 3.286 0 6.517-1.347 8.863-3.692 2.382-2.382 3.694-5.53 3.694-8.865v-17.155c0-7.519-2.974-14.636-8.376-20.038-5.402-5.401-12.552-8.376-20.131-8.376-7.559 0-14.573 3.023-19.725 8.485-5.004 5.247-7.761 12.324-7.761 19.929v17.155c0 3.394 1.279 6.542 3.601 8.864 2.381 2.381 5.529 3.693 8.863 3.693 3.323 0 6.567-1.329 8.91-3.647 2.437-2.364 3.833-5.607 3.833-8.91" fill="#5b57a6" />
</g>
<g transform="translate(296 1437.9)">
        <path d="m0 0c5.005-5.245 7.761-12.322 7.761-19.929v-17.154c0-3.395-1.28-6.542-3.601-8.865-2.383-2.382-5.53-3.693-8.864-3.693-3.322 0-6.566 1.329-8.91 3.647-2.436 2.364-3.832 5.607-3.832 8.911v17.154c0 1.117-0.281 2.109-0.75 2.651l-0.045 0.053c-0.116 0.138-0.426 0.504-1.486 0.504-0.979 0-1.791-0.317-2.477-0.969l-0.065-0.06c-0.502-0.464-0.756-1.15-0.756-2.04v-17.293c0-3.334-1.312-6.483-3.695-8.865l-0.093-0.092c-2.42-2.322-5.567-3.601-8.863-3.601-3.285 0-6.515 1.346-8.863 3.693-2.382 2.382-3.693 5.531-3.693 8.865v17.154c0 7.519 2.974 14.636 8.376 20.037 5.401 5.402 12.55 8.377 20.129 8.377 7.561 0 14.576-3.022 19.727-8.485" fill="#00b25a" />
    </g>
<g transform="translate(304 1418.6)">
    <path d="m0 0v-17.155c0-1.117 0.28-2.108 0.75-2.651l0.046-0.054c0.116-0.138 0.426-0.503 1.483-0.503 0.982 0 1.792 0.318 2.48 0.969l0.063 0.06c0.503 0.464 0.758 1.151 0.758 2.04v17.294c0 3.335 1.312 6.483 3.694 8.865l0.093 0.091c2.419 2.322 5.567 3.601 8.862 3.601 3.286 0 6.517-1.347 8.863-3.692 2.382-2.382 3.694-5.53 3.694-8.865v-17.155c0-7.519-2.974-14.636-8.376-20.038-5.402-5.401-12.552-8.376-20.131-8.376-7.559 0-14.573 3.023-19.725 8.485-5.004 5.247-7.761 12.324-7.761 19.929v17.155c0 3.394 1.279 6.542 3.601 8.864 2.381 2.381 5.529 3.693 8.863 3.693 3.323 0 6.567-1.329 8.91-3.647 2.437-2.364 3.833-5.607 3.833-8.91" fill="#ffc519" />
</g>
<g transform="translate(358 1437.9)">
        <path d="m0 0c5.005-5.245 7.761-12.322 7.761-19.929v-17.154c0-3.395-1.28-6.542-3.601-8.865-2.383-2.382-5.53-3.693-8.864-3.693-3.322 0-6.566 1.329-8.91 3.647-2.436 2.364-3.832 5.607-3.832 8.911v17.154c0 1.117-0.281 2.109-0.75 2.651l-0.045 0.053c-0.116 0.138-0.426 0.504-1.486 0.504-0.979 0-1.791-0.317-2.477-0.969l-0.065-0.06c-0.502-0.464-0.756-1.15-0.756-2.04v-17.293c0-3.334-1.312-6.483-3.695-8.865l-0.093-0.092c-2.42-2.322-5.567-3.601-8.863-3.601-3.285 0-6.515 1.346-8.863 3.693-2.382 2.382-3.693 5.531-3.693 8.865v17.154c0 7.519 2.974 14.636 8.376 20.037 5.401 5.402 12.55 8.377 20.129 8.377 7.561 0 14.576-3.022 19.727-8.485" fill="#f3703a" />
    </g>
<g transform="translate(366 1418.6)">
    <path d="m0 0v-17.155c0-1.117 0.28-2.108 0.75-2.651l0.046-0.054c0.116-0.138 0.426-0.503 1.483-0.503 0.982 0 1.792 0.318 2.48 0.969l0.063 0.06c0.503 0.464 0.758 1.151 0.758 2.04v17.294c0 3.335 1.312 6.483 3.694 8.865l0.093 0.091c2.419 2.322 5.567 3.601 8.862 3.601 3.286 0 6.517-1.347 8.863-3.692 2.382-2.382 3.694-5.53 3.694-8.865v-17.155c0-7.519-2.974-14.636-8.376-20.038-5.402-5.401-12.552-8.376-20.131-8.376-7.559 0-14.573 3.023-19.725 8.485-5.004 5.247-7.761 12.324-7.761 19.929v17.155c0 3.394 1.279 6.542 3.601 8.864 2.381 2.381 5.529 3.693 8.863 3.693 3.323 0 6.567-1.329 8.91-3.647 2.437-2.364 3.833-5.607 3.833-8.91" fill="#e11d43" />
</g>
<g transform="translate(420 1437.9)">
        <path d="m0 0c5.005-5.245 7.761-12.322 7.761-19.929v-17.154c0-3.395-1.28-6.542-3.601-8.865-2.383-2.382-5.53-3.693-8.864-3.693-3.322 0-6.566 1.329-8.91 3.647-2.436 2.364-3.832 5.607-3.832 8.911v17.154c0 1.117-0.281 2.109-0.75 2.651l-0.045 0.053c-0.116 0.138-0.426 0.504-1.486 0.504-0.979 0-1.791-0.317-2.477-0.969l-0.065-0.06c-0.502-0.464-0.756-1.15-0.756-2.04v-17.293c0-3.334-1.312-6.483-3.695-8.865l-0.093-0.092c-2.42-2.322-5.567-3.601-8.863-3.601-3.285 0-6.515 1.346-8.863 3.693-2.382 2.382-3.693 5.531-3.693 8.865v17.154c0 7.519 2.974 14.636 8.376 20.037 5.401 5.402 12.55 8.377 20.129 8.377 7.561 0 14.576-3.022 19.727-8.485" fill="#5b57a6" />
    </g>
<g transform="translate(428 1418.6)">
    <path d="m0 0v-17.155c0-1.117 0.28-2.108 0.75-2.651l0.046-0.054c0.116-0.138 0.426-0.503 1.483-0.503 0.982 0 1.792 0.318 2.48 0.969l0.063 0.06c0.503 0.464 0.758 1.151 0.758 2.04v17.294c0 3.335 1.312 6.483 3.694 8.865l0.093 0.091c2.419 2.322 5.567 3.601 8.862 3.601 3.286 0 6.517-1.347 8.863-3.692 2.382-2.382 3.694-5.53 3.694-8.865v-17.155c0-7.519-2.974-14.636-8.376-20.038-5.402-5.401-12.552-8.376-20.131-8.376-7.559 0-14.573 3.023-19.725 8.485-5.004 5.247-7.761 12.324-7.761 19.929v17.155c0 3.394 1.279 6.542 3.601 8.864 2.381 2.381 5.529 3.693 8.863 3.693 3.323 0 6.567-1.329 8.91-3.647 2.437-2.364 3.833-5.607 3.833-8.91" fill="#00b25a" />
</g>
<g transform="translate(482 1437.9)">
        <path d="m0 0c5.005-5.245 7.761-12.322 7.761-19.929v-17.154c0-3.395-1.28-6.542-3.601-8.865-2.383-2.382-5.53-3.693-8.864-3.693-3.322 0-6.566 1.329-8.91 3.647-2.436 2.364-3.832 5.607-3.832 8.911v17.154c0 1.117-0.281 2.109-0.75 2.651l-0.045 0.053c-0.116 0.138-0.426 0.504-1.486 0.504-0.979 0-1.791-0.317-2.477-0.969l-0.065-0.06c-0.502-0.464-0.756-1.15-0.756-2.04v-17.293c0-3.334-1.312-6.483-3.695-8.865l-0.093-0.092c-2.42-2.322-5.567-3.601-8.863-3.601-3.285 0-6.515 1.346-8.863 3.693-2.382 2.382-3.693 5.531-3.693 8.865v17.154c0 7.519 2.974 14.636 8.376 20.037 5.401 5.402 12.55 8.377 20.129 8.377 7.561 0 14.576-3.022 19.727-8.485" fill="#ffc519" />
    </g>
<g transform="translate(490 1418.6)">
    <path d="m0 0v-17.155c0-1.117 0.28-2.108 0.75-2.651l0.046-0.054c0.116-0.138 0.426-0.503 1.483-0.503 0.982 0 1.792 0.318 2.48 0.969l0.063 0.06c0.503 0.464 0.758 1.151 0.758 2.04v17.294c0 3.335 1.312 6.483 3.694 8.865l0.093 0.091c2.419 2.322 5.567 3.601 8.862 3.601 3.286 0 6.517-1.347 8.863-3.692 2.382-2.382 3.694-5.53 3.694-8.865v-17.155c0-7.519-2.974-14.636-8.376-20.038-5.402-5.401-12.552-8.376-20.131-8.376-7.559 0-14.573 3.023-19.725 8.485-5.004 5.247-7.761 12.324-7.761 19.929v17.155c0 3.394 1.279 6.542 3.601 8.864 2.381 2.381 5.529 3.693 8.863 3.693 3.323 0 6.567-1.329 8.91-3.647 2.437-2.364 3.833-5.607 3.833-8.91" fill="#f3703a" />
</g>
<g transform="translate(544 1437.9)">
        <path d="m0 0c5.005-5.245 7.761-12.322 7.761-19.929v-17.154c0-3.395-1.28-6.542-3.601-8.865-2.383-2.382-5.53-3.693-8.864-3.693-3.322 0-6.566 1.329-8.91 3.647-2.436 2.364-3.832 5.607-3.832 8.911v17.154c0 1.117-0.281 2.109-0.75 2.651l-0.045 0.053c-0.116 0.138-0.426 0.504-1.486 0.504-0.979 0-1.791-0.317-2.477-0.969l-0.065-0.06c-0.502-0.464-0.756-1.15-0.756-2.04v-17.293c0-3.334-1.312-6.483-3.695-8.865l-0.093-0.092c-2.42-2.322-5.567-3.601-8.863-3.601-3.285 0-6.515 1.346-8.863 3.693-2.382 2.382-3.693 5.531-3.693 8.865v17.154c0 7.519 2.974 14.636 8.376 20.037 5.401 5.402 12.55 8.377 20.129 8.377 7.561 0 14.576-3.022 19.727-8.485" fill="#e11d43" />
    </g>
<g transform="translate(552 1418.6)">
    <path d="m0 0v-17.155c0-1.117 0.28-2.108 0.75-2.651l0.046-0.054c0.116-0.138 0.426-0.503 1.483-0.503 0.982 0 1.792 0.318 2.48 0.969l0.063 0.06c0.503 0.464 0.758 1.151 0.758 2.04v17.294c0 3.335 1.312 6.483 3.694 8.865l0.093 0.091c2.419 2.322 5.567 3.601 8.862 3.601 3.286 0 6.517-1.347 8.863-3.692 2.382-2.382 3.694-5.53 3.694-8.865v-17.155c0-7.519-2.974-14.636-8.376-20.038-5.402-5.401-12.552-8.376-20.131-8.376-7.559 0-14.573 3.023-19.725 8.485-5.004 5.247-7.761 12.324-7.761 19.929v17.155c0 3.394 1.279 6.542 3.601 8.864 2.381 2.381 5.529 3.693 8.863 3.693 3.323 0 6.567-1.329 8.91-3.647 2.437-2.364 3.833-5.607 3.833-8.91" fill="#5b57a6" />
</g>
<g transform="translate(606 1437.9)">
        <path d="m0 0c5.005-5.245 7.761-12.322 7.761-19.929v-17.154c0-3.395-1.28-6.542-3.601-8.865-2.383-2.382-5.53-3.693-8.864-3.693-3.322 0-6.566 1.329-8.91 3.647-2.436 2.364-3.832 5.607-3.832 8.911v17.154c0 1.117-0.281 2.109-0.75 2.651l-0.045 0.053c-0.116 0.138-0.426 0.504-1.486 0.504-0.979 0-1.791-0.317-2.477-0.969l-0.065-0.06c-0.502-0.464-0.756-1.15-0.756-2.04v-17.293c0-3.334-1.312-6.483-3.695-8.865l-0.093-0.092c-2.42-2.322-5.567-3.601-8.863-3.601-3.285 0-6.515 1.346-8.863 3.693-2.382 2.382-3.693 5.531-3.693 8.865v17.154c0 7.519 2.974 14.636 8.376 20.037 5.401 5.402 12.55 8.377 20.129 8.377 7.561 0 14.576-3.022 19.727-8.485" fill="#00b25a" />
    </g>
<g transform="translate(614 1418.6)">
    <path d="m0 0v-17.155c0-1.117 0.28-2.108 0.75-2.651l0.046-0.054c0.116-0.138 0.426-0.503 1.483-0.503 0.982 0 1.792 0.318 2.48 0.969l0.063 0.06c0.503 0.464 0.758 1.151 0.758 2.04v17.294c0 3.335 1.312 6.483 3.694 8.865l0.093 0.091c2.419 2.322 5.567 3.601 8.862 3.601 3.286 0 6.517-1.347 8.863-3.692 2.382-2.382 3.694-5.53 3.694-8.865v-17.155c0-7.519-2.974-14.636-8.376-20.038-5.402-5.401-12.552-8.376-20.131-8.376-7.559 0-14.573 3.023-19.725 8.485-5.004 5.247-7.761 12.324-7.761 19.929v17.155c0 3.394 1.279 6.542 3.601 8.864 2.381 2.381 5.529 3.693 8.863 3.693 3.323 0 6.567-1.329 8.91-3.647 2.437-2.364 3.833-5.607 3.833-8.91" fill="#ffc519" />
</g>
<g transform="translate(668 1437.9)">
        <path d="m0 0c5.005-5.245 7.761-12.322 7.761-19.929v-17.154c0-3.395-1.28-6.542-3.601-8.865-2.383-2.382-5.53-3.693-8.864-3.693-3.322 0-6.566 1.329-8.91 3.647-2.436 2.364-3.832 5.607-3.832 8.911v17.154c0 1.117-0.281 2.109-0.75 2.651l-0.045 0.053c-0.116 0.138-0.426 0.504-1.486 0.504-0.979 0-1.791-0.317-2.477-0.969l-0.065-0.06c-0.502-0.464-0.756-1.15-0.756-2.04v-17.293c0-3.334-1.312-6.483-3.695-8.865l-0.093-0.092c-2.42-2.322-5.567-3.601-8.863-3.601-3.285 0-6.515 1.346-8.863 3.693-2.382 2.382-3.693 5.531-3.693 8.865v17.154c0 7.519 2.974 14.636 8.376 20.037 5.401 5.402 12.55 8.377 20.129 8.377 7.561 0 14.576-3.022 19.727-8.485" fill="#f3703a" />
    </g>
<g transform="translate(676 1418.6)">
    <path d="m0 0v-17.155c0-1.117 0.28-2.108 0.75-2.651l0.046-0.054c0.116-0.138 0.426-0.503 1.483-0.503 0.982 0 1.792 0.318 2.48 0.969l0.063 0.06c0.503 0.464 0.758 1.151 0.758 2.04v17.294c0 3.335 1.312 6.483 3.694 8.865l0.093 0.091c2.419 2.322 5.567 3.601 8.862 3.601 3.286 0 6.517-1.347 8.863-3.692 2.382-2.382 3.694-5.53 3.694-8.865v-17.155c0-7.519-2.974-14.636-8.376-20.038-5.402-5.401-12.552-8.376-20.131-8.376-7.559 0-14.573 3.023-19.725 8.485-5.004 5.247-7.761 12.324-7.761 19.929v17.155c0 3.394 1.279 6.542 3.601 8.864 2.381 2.381 5.529 3.693 8.863 3.693 3.323 0 6.567-1.329 8.91-3.647 2.437-2.364 3.833-5.607 3.833-8.91" fill="#e11d43" />
</g>
<g transform="translate(730 1437.9)">
        <path d="m0 0c5.005-5.245 7.761-12.322 7.761-19.929v-17.154c0-3.395-1.28-6.542-3.601-8.865-2.383-2.382-5.53-3.693-8.864-3.693-3.322 0-6.566 1.329-8.91 3.647-2.436 2.364-3.832 5.607-3.832 8.911v17.154c0 1.117-0.281 2.109-0.75 2.651l-0.045 0.053c-0.116 0.138-0.426 0.504-1.486 0.504-0.979 0-1.791-0.317-2.477-0.969l-0.065-0.06c-0.502-0.464-0.756-1.15-0.756-2.04v-17.293c0-3.334-1.312-6.483-3.695-8.865l-0.093-0.092c-2.42-2.322-5.567-3.601-8.863-3.601-3.285 0-6.515 1.346-8.863 3.693-2.382 2.382-3.693 5.531-3.693 8.865v17.154c0 7.519 2.974 14.636 8.376 20.037 5.401 5.402 12.55 8.377 20.129 8.377 7.561 0 14.576-3.022 19.727-8.485" fill="#5b57a6" />
    </g>
<g transform="translate(738 1418.6)">
    <path d="m0 0v-17.155c0-1.117 0.28-2.108 0.75-2.651l0.046-0.054c0.116-0.138 0.426-0.503 1.483-0.503 0.982 0 1.792 0.318 2.48 0.969l0.063 0.06c0.503 0.464 0.758 1.151 0.758 2.04v17.294c0 3.335 1.312 6.483 3.694 8.865l0.093 0.091c2.419 2.322 5.567 3.601 8.862 3.601 3.286 0 6.517-1.347 8.863-3.692 2.382-2.382 3.694-5.53 3.694-8.865v-17.155c0-7.519-2.974-14.636-8.376-20.038-5.402-5.401-12.552-8.376-20.131-8.376-7.559 0-14.573 3.023-19.725 8.485-5.004 5.247-7.761 12.324-7.761 19.929v17.155c0 3.394 1.279 6.542 3.601 8.864 2.381 2.381 5.529 3.693 8.863 3.693 3.323 0 6.567-1.329 8.91-3.647 2.437-2.364 3.833-5.607 3.833-8.91" fill="#00b25a" />
</g>
<g transform="translate(792 1437.9)">
        <path d="m0 0c5.005-5.245 7.761-12.322 7.761-19.929v-17.154c0-3.395-1.28-6.542-3.601-8.865-2.383-2.382-5.53-3.693-8.864-3.693-3.322 0-6.566 1.329-8.91 3.647-2.436 2.364-3.832 5.607-3.832 8.911v17.154c0 1.117-0.281 2.109-0.75 2.651l-0.045 0.053c-0.116 0.138-0.426 0.504-1.486 0.504-0.979 0-1.791-0.317-2.477-0.969l-0.065-0.06c-0.502-0.464-0.756-1.15-0.756-2.04v-17.293c0-3.334-1.312-6.483-3.695-8.865l-0.093-0.092c-2.42-2.322-5.567-3.601-8.863-3.601-3.285 0-6.515 1.346-8.863 3.693-2.382 2.382-3.693 5.531-3.693 8.865v17.154c0 7.519 2.974 14.636 8.376 20.037 5.401 5.402 12.55 8.377 20.129 8.377 7.561 0 14.576-3.022 19.727-8.485" fill="#ffc519" />
    </g>
<g transform="translate(800 1418.6)">
    <path d="m0 0v-17.155c0-1.117 0.28-2.108 0.75-2.651l0.046-0.054c0.116-0.138 0.426-0.503 1.483-0.503 0.982 0 1.792 0.318 2.48 0.969l0.063 0.06c0.503 0.464 0.758 1.151 0.758 2.04v17.294c0 3.335 1.312 6.483 3.694 8.865l0.093 0.091c2.419 2.322 5.567 3.601 8.862 3.601 3.286 0 6.517-1.347 8.863-3.692 2.382-2.382 3.694-5.53 3.694-8.865v-17.155c0-7.519-2.974-14.636-8.376-20.038-5.402-5.401-12.552-8.376-20.131-8.376-7.559 0-14.573 3.023-19.725 8.485-5.004 5.247-7.761 12.324-7.761 19.929v17.155c0 3.394 1.279 6.542 3.601 8.864 2.381 2.381 5.529 3.693 8.863 3.693 3.323 0 6.567-1.329 8.91-3.647 2.437-2.364 3.833-5.607 3.833-8.91" fill="#f3703a" />
</g>
<g transform="translate(854 1437.9)">
        <path d="m0 0c5.005-5.245 7.761-12.322 7.761-19.929v-17.154c0-3.395-1.28-6.542-3.601-8.865-2.383-2.382-5.53-3.693-8.864-3.693-3.322 0-6.566 1.329-8.91 3.647-2.436 2.364-3.832 5.607-3.832 8.911v17.154c0 1.117-0.281 2.109-0.75 2.651l-0.045 0.053c-0.116 0.138-0.426 0.504-1.486 0.504-0.979 0-1.791-0.317-2.477-0.969l-0.065-0.06c-0.502-0.464-0.756-1.15-0.756-2.04v-17.293c0-3.334-1.312-6.483-3.695-8.865l-0.093-0.092c-2.42-2.322-5.567-3.601-8.863-3.601-3.285 0-6.515 1.346-8.863 3.693-2.382 2.382-3.693 5.531-3.693 8.865v17.154c0 7.519 2.974 14.636 8.376 20.037 5.401 5.402 12.55 8.377 20.129 8.377 7.561 0 14.576-3.022 19.727-8.485" fill="#e11d43" />
    </g>
<g transform="translate(862 1418.6)">
    <path d="m0 0v-17.155c0-1.117 0.28-2.108 0.75-2.651l0.046-0.054c0.116-0.138 0.426-0.503 1.483-0.503 0.982 0 1.792 0.318 2.48 0.969l0.063 0.06c0.503 0.464 0.758 1.151 0.758 2.04v17.294c0 3.335 1.312 6.483 3.694 8.865l0.093 0.091c2.419 2.322 5.567 3.601 8.862 3.601 3.286 0 6.517-1.347 8.863-3.692 2.382-2.382 3.694-5.53 3.694-8.865v-17.155c0-7.519-2.974-14.636-8.376-20.038-5.402-5.401-12.552-8.376-20.131-8.376-7.559 0-14.573 3.023-19.725 8.485-5.004 5.247-7.761 12.324-7.761 19.929v17.155c0 3.394 1.279 6.542 3.601 8.864 2.381 2.381 5.529 3.693 8.863 3.693 3.323 0 6.567-1.329 8.91-3.647 2.437-2.364 3.833-5.607 3.833-8.91" fill="#5b57a6" />
</g>
<g transform="translate(916 1437.9)">
        <path d="m0 0c5.005-5.245 7.761-12.322 7.761-19.929v-17.154c0-3.395-1.28-6.542-3.601-8.865-2.383-2.382-5.53-3.693-8.864-3.693-3.322 0-6.566 1.329-8.91 3.647-2.436 2.364-3.832 5.607-3.832 8.911v17.154c0 1.117-0.281 2.109-0.75 2.651l-0.045 0.053c-0.116 0.138-0.426 0.504-1.486 0.504-0.979 0-1.791-0.317-2.477-0.969l-0.065-0.06c-0.502-0.464-0.756-1.15-0.756-2.04v-17.293c0-3.334-1.312-6.483-3.695-8.865l-0.093-0.092c-2.42-2.322-5.567-3.601-8.863-3.601-3.285 0-6.515 1.346-8.863 3.693-2.382 2.382-3.693 5.531-3.693 8.865v17.154c0 7.519 2.974 14.636 8.376 20.037 5.401 5.402 12.55 8.377 20.129 8.377 7.561 0 14.576-3.022 19.727-8.485" fill="#00b25a" />
    </g>
<g transform="translate(924 1418.6)">
    <path d="m0 0v-17.155c0-1.117 0.28-2.108 0.75-2.651l0.046-0.054c0.116-0.138 0.426-0.503 1.483-0.503 0.982 0 1.792 0.318 2.48 0.969l0.063 0.06c0.503 0.464 0.758 1.151 0.758 2.04v17.294c0 3.335 1.312 6.483 3.694 8.865l0.093 0.091c2.419 2.322 5.567 3.601 8.862 3.601 3.286 0 6.517-1.347 8.863-3.692 2.382-2.382 3.694-5.53 3.694-8.865v-17.155c0-7.519-2.974-14.636-8.376-20.038-5.402-5.401-12.552-8.376-20.131-8.376-7.559 0-14.573 3.023-19.725 8.485-5.004 5.247-7.761 12.324-7.761 19.929v17.155c0 3.394 1.279 6.542 3.601 8.864 2.381 2.381 5.529 3.693 8.863 3.693 3.323 0 6.567-1.329 8.91-3.647 2.437-2.364 3.833-5.607 3.833-8.91" fill="#ffc519" />
</g>
<g transform="translate(978 1437.9)">
        <path d="m0 0c5.005-5.245 7.761-12.322 7.761-19.929v-17.154c0-3.395-1.28-6.542-3.601-8.865-2.383-2.382-5.53-3.693-8.864-3.693-3.322 0-6.566 1.329-8.91 3.647-2.436 2.364-3.832 5.607-3.832 8.911v17.154c0 1.117-0.281 2.109-0.75 2.651l-0.045 0.053c-0.116 0.138-0.426 0.504-1.486 0.504-0.979 0-1.791-0.317-2.477-0.969l-0.065-0.06c-0.502-0.464-0.756-1.15-0.756-2.04v-17.293c0-3.334-1.312-6.483-3.695-8.865l-0.093-0.092c-2.42-2.322-5.567-3.601-8.863-3.601-3.285 0-6.515 1.346-8.863 3.693-2.382 2.382-3.693 5.531-3.693 8.865v17.154c0 7.519 2.974 14.636 8.376 20.037 5.401 5.402 12.55 8.377 20.129 8.377 7.561 0 14.576-3.022 19.727-8.485" fill="#f3703a" />
    </g>
<g transform="translate(986 1418.6)">
    <path d="m0 0v-17.155c0-1.117 0.28-2.108 0.75-2.651l0.046-0.054c0.116-0.138 0.426-0.503 1.483-0.503 0.982 0 1.792 0.318 2.48 0.969l0.063 0.06c0.503 0.464 0.758 1.151 0.758 2.04v17.294c0 3.335 1.312 6.483 3.694 8.865l0.093 0.091c2.419 2.322 5.567 3.601 8.862 3.601 3.286 0 6.517-1.347 8.863-3.692 2.382-2.382 3.694-5.53 3.694-8.865v-17.155c0-7.519-2.974-14.636-8.376-20.038-5.402-5.401-12.552-8.376-20.131-8.376-7.559 0-14.573 3.023-19.725 8.485-5.004 5.247-7.761 12.324-7.761 19.929v17.155c0 3.394 1.279 6.542 3.601 8.864 2.381 2.381 5.529 3.693 8.863 3.693 3.323 0 6.567-1.329 8.91-3.647 2.437-2.364 3.833-5.607 3.833-8.91" fill="#e11d43" />
</g>
<g transform="translate(1040 1437.9)">
        <path d="m0 0c5.005-5.245 7.761-12.322 7.761-19.929v-17.154c0-3.395-1.28-6.542-3.601-8.865-2.383-2.382-5.53-3.693-8.864-3.693-3.322 0-6.566 1.329-8.91 3.647-2.436 2.364-3.832 5.607-3.832 8.911v17.154c0 1.117-0.281 2.109-0.75 2.651l-0.045 0.053c-0.116 0.138-0.426 0.504-1.486 0.504-0.979 0-1.791-0.317-2.477-0.969l-0.065-0.06c-0.502-0.464-0.756-1.15-0.756-2.04v-17.293c0-3.334-1.312-6.483-3.695-8.865l-0.093-0.092c-2.42-2.322-5.567-3.601-8.863-3.601-3.285 0-6.515 1.346-8.863 3.693-2.382 2.382-3.693 5.531-3.693 8.865v17.154c0 7.519 2.974 14.636 8.376 20.037 5.401 5.402 12.55 8.377 20.129 8.377 7.561 0 14.576-3.022 19.727-8.485" fill="#5b57a6" />
    </g>
<g transform="translate(1048 1418.6)">
    <path d="m0 0v-17.155c0-1.117 0.28-2.108 0.75-2.651l0.046-0.054c0.116-0.138 0.426-0.503 1.483-0.503 0.982 0 1.792 0.318 2.48 0.969l0.063 0.06c0.503 0.464 0.758 1.151 0.758 2.04v17.294c0 3.335 1.312 6.483 3.694 8.865l0.093 0.091c2.419 2.322 5.567 3.601 8.862 3.601 3.286 0 6.517-1.347 8.863-3.692 2.382-2.382 3.694-5.53 3.694-8.865v-17.155c0-7.519-2.974-14.636-8.376-20.038-5.402-5.401-12.552-8.376-20.131-8.376-7.559 0-14.573 3.023-19.725 8.485-5.004 5.247-7.761 12.324-7.761 19.929v17.155c0 3.394 1.279 6.542 3.601 8.864 2.381 2.381 5.529 3.693 8.863 3.693 3.323 0 6.567-1.329 8.91-3.647 2.437-2.364 3.833-5.607 3.833-8.91" fill="#00b25a" />
</g>
<g transform="translate(1102 1437.9)">
        <path d="m0 0c5.005-5.245 7.761-12.322 7.761-19.929v-17.154c0-3.395-1.28-6.542-3.601-8.865-2.383-2.382-5.53-3.693-8.864-3.693-3.322 0-6.566 1.329-8.91 3.647-2.436 2.364-3.832 5.607-3.832 8.911v17.154c0 1.117-0.281 2.109-0.75 2.651l-0.045 0.053c-0.116 0.138-0.426 0.504-1.486 0.504-0.979 0-1.791-0.317-2.477-0.969l-0.065-0.06c-0.502-0.464-0.756-1.15-0.756-2.04v-17.293c0-3.334-1.312-6.483-3.695-8.865l-0.093-0.092c-2.42-2.322-5.567-3.601-8.863-3.601-3.285 0-6.515 1.346-8.863 3.693-2.382 2.382-3.693 5.531-3.693 8.865v17.154c0 7.519 2.974 14.636 8.376 20.037 5.401 5.402 12.55 8.377 20.129 8.377 7.561 0 14.576-3.022 19.727-8.485" fill="#ffc519" />
    </g>
<g transform="translate(1110 1418.6)">
    <path d="m0 0v-17.155c0-1.117 0.28-2.108 0.75-2.651l0.046-0.054c0.116-0.138 0.426-0.503 1.483-0.503 0.982 0 1.792 0.318 2.48 0.969l0.063 0.06c0.503 0.464 0.758 1.151 0.758 2.04v17.294c0 3.335 1.312 6.483 3.694 8.865l0.093 0.091c2.419 2.322 5.567 3.601 8.862 3.601 3.286 0 6.517-1.347 8.863-3.692 2.382-2.382 3.694-5.53 3.694-8.865v-17.155c0-7.519-2.974-14.636-8.376-20.038-5.402-5.401-12.552-8.376-20.131-8.376-7.559 0-14.573 3.023-19.725 8.485-5.004 5.247-7.761 12.324-7.761 19.929v17.155c0 3.394 1.279 6.542 3.601 8.864 2.381 2.381 5.529 3.693 8.863 3.693 3.323 0 6.567-1.329 8.91-3.647 2.437-2.364 3.833-5.607 3.833-8.91" fill="#f3703a" />
</g>
<g transform="translate(1164 1437.9)">
        <path d="m0 0c5.005-5.245 7.761-12.322 7.761-19.929v-17.154c0-3.395-1.28-6.542-3.601-8.865-2.383-2.382-5.53-3.693-8.864-3.693-3.322 0-6.566 1.329-8.91 3.647-2.436 2.364-3.832 5.607-3.832 8.911v17.154c0 1.117-0.281 2.109-0.75 2.651l-0.045 0.053c-0.116 0.138-0.426 0.504-1.486 0.504-0.979 0-1.791-0.317-2.477-0.969l-0.065-0.06c-0.502-0.464-0.756-1.15-0.756-2.04v-17.293c0-3.334-1.312-6.483-3.695-8.865l-0.093-0.092c-2.42-2.322-5.567-3.601-8.863-3.601-3.285 0-6.515 1.346-8.863 3.693-2.382 2.382-3.693 5.531-3.693 8.865v17.154c0 7.519 2.974 14.636 8.376 20.037 5.401 5.402 12.55 8.377 20.129 8.377 7.561 0 14.576-3.022 19.727-8.485" fill="#e11d43" />
    </g>
<g transform="translate(1172 1418.6)">
    <path d="m0 0v-17.155c0-1.117 0.28-2.108 0.75-2.651l0.046-0.054c0.116-0.138 0.426-0.503 1.483-0.503 0.982 0 1.792 0.318 2.48 0.969l0.063 0.06c0.503 0.464 0.758 1.151 0.758 2.04v17.294c0 3.335 1.312 6.483 3.694 8.865l0.093 0.091c2.419 2.322 5.567 3.601 8.862 3.601 3.286 0 6.517-1.347 8.863-3.692 2.382-2.382 3.694-5.53 3.694-8.865v-17.155c0-7.519-2.974-14.636-8.376-20.038-5.402-5.401-12.552-8.376-20.131-8.376-7.559 0-14.573 3.023-19.725 8.485-5.004 5.247-7.761 12.324-7.761 19.929v17.155c0 3.394 1.279 6.542 3.601 8.864 2.381 2.381 5.529 3.693 8.863 3.693 3.323 0 6.567-1.329 8.91-3.647 2.437-2.364 3.833-5.607 3.833-8.91" fill="#5b57a6" />
</g>
<g transform="translate(1226 1437.9)">
        <path d="m0 0c5.005-5.245 7.761-12.322 7.761-19.929v-17.154c0-3.395-1.28-6.542-3.601-8.865-2.383-2.382-5.53-3.693-8.864-3.693-3.322 0-6.566 1.329-8.91 3.647-2.436 2.364-3.832 5.607-3.832 8.911v17.154c0 1.117-0.281 2.109-0.75 2.651l-0.045 0.053c-0.116 0.138-0.426 0.504-1.486 0.504-0.979 0-1.791-0.317-2.477-0.969l-0.065-0.06c-0.502-0.464-0.756-1.15-0.756-2.04v-17.293c0-3.334-1.312-6.483-3.695-8.865l-0.093-0.092c-2.42-2.322-5.567-3.601-8.863-3.601-3.285 0-6.515 1.346-8.863 3.693-2.382 2.382-3.693 5.531-3.693 8.865v17.154c0 7.519 2.974 14.636 8.376 20.037 5.401 5.402 12.55 8.377 20.129 8.377 7.561 0 14.576-3.022 19.727-8.485" fill="#00b25a" />
    </g>
<g transform="translate(1234 1418.6)">
    <path d="m0 0v-17.155c0-1.117 0.28-2.108 0.75-2.651l0.046-0.054c0.116-0.138 0.426-0.503 1.483-0.503 0.982 0 1.792 0.318 2.48 0.969l0.063 0.06c0.503 0.464 0.758 1.151 0.758 2.04v17.294c0 3.335 1.312 6.483 3.694 8.865l0.093 0.091c2.419 2.322 5.567 3.601 8.862 3.601 3.286 0 6.517-1.347 8.863-3.692 2.382-2.382 3.694-5.53 3.694-8.865v-17.155c0-7.519-2.974-14.636-8.376-20.038-5.402-5.401-12.552-8.376-20.131-8.376-7.559 0-14.573 3.023-19.725 8.485-5.004 5.247-7.761 12.324-7.761 19.929v17.155c0 3.394 1.279 6.542 3.601 8.864 2.381 2.381 5.529 3.693 8.863 3.693 3.323 0 6.567-1.329 8.91-3.647 2.437-2.364 3.833-5.607 3.833-8.91" fill="#ffc519" />
</g>
<g transform="translate(1288 1437.9)">
        <path d="m0 0c5.005-5.245 7.761-12.322 7.761-19.929v-17.154c0-3.395-1.28-6.542-3.601-8.865-2.383-2.382-5.53-3.693-8.864-3.693-3.322 0-6.566 1.329-8.91 3.647-2.436 2.364-3.832 5.607-3.832 8.911v17.154c0 1.117-0.281 2.109-0.75 2.651l-0.045 0.053c-0.116 0.138-0.426 0.504-1.486 0.504-0.979 0-1.791-0.317-2.477-0.969l-0.065-0.06c-0.502-0.464-0.756-1.15-0.756-2.04v-17.293c0-3.334-1.312-6.483-3.695-8.865l-0.093-0.092c-2.42-2.322-5.567-3.601-8.863-3.601-3.285 0-6.515 1.346-8.863 3.693-2.382 2.382-3.693 5.531-3.693 8.865v17.154c0 7.519 2.974 14.636 8.376 20.037 5.401 5.402 12.55 8.377 20.129 8.377 7.561 0 14.576-3.022 19.727-8.485" fill="#f3703a" />
    </g>
<g transform="translate(1296 1418.6)">
    <path d="m0 0v-17.155c0-1.117 0.28-2.108 0.75-2.651l0.046-0.054c0.116-0.138 0.426-0.503 1.483-0.503 0.982 0 1.792 0.318 2.48 0.969l0.063 0.06c0.503 0.464 0.758 1.151 0.758 2.04v17.294c0 3.335 1.312 6.483 3.694 8.865l0.093 0.091c2.419 2.322 5.567 3.601 8.862 3.601 3.286 0 6.517-1.347 8.863-3.692 2.382-2.382 3.694-5.53 3.694-8.865v-17.155c0-7.519-2.974-14.636-8.376-20.038-5.402-5.401-12.552-8.376-20.131-8.376-7.559 0-14.573 3.023-19.725 8.485-5.004 5.247-7.761 12.324-7.761 19.929v17.155c0 3.394 1.279 6.542 3.601 8.864 2.381 2.381 5.529 3.693 8.863 3.693 3.323 0 6.567-1.329 8.91-3.647 2.437-2.364 3.833-5.607 3.833-8.91" fill="#e11d43" />
</g>
<g transform="translate(1350 1437.9)">
        <path d="m0 0c5.005-5.245 7.761-12.322 7.761-19.929v-17.154c0-3.395-1.28-6.542-3.601-8.865-2.383-2.382-5.53-3.693-8.864-3.693-3.322 0-6.566 1.329-8.91 3.647-2.436 2.364-3.832 5.607-3.832 8.911v17.154c0 1.117-0.281 2.109-0.75 2.651l-0.045 0.053c-0.116 0.138-0.426 0.504-1.486 0.504-0.979 0-1.791-0.317-2.477-0.969l-0.065-0.06c-0.502-0.464-0.756-1.15-0.756-2.04v-17.293c0-3.334-1.312-6.483-3.695-8.865l-0.093-0.092c-2.42-2.322-5.567-3.601-8.863-3.601-3.285 0-6.515 1.346-8.863 3.693-2.382 2.382-3.693 5.531-3.693 8.865v17.154c0 7.519 2.974 14.636 8.376 20.037 5.401 5.402 12.55 8.377 20.129 8.377 7.561 0 14.576-3.022 19.727-8.485" fill="#5b57a6" />
    </g>
<g transform="translate(1358 1418.6)">
    <path d="m0 0v-17.155c0-1.117 0.28-2.108 0.75-2.651l0.046-0.054c0.116-0.138 0.426-0.503 1.483-0.503 0.982 0 1.792 0.318 2.48 0.969l0.063 0.06c0.503 0.464 0.758 1.151 0.758 2.04v17.294c0 3.335 1.312 6.483 3.694 8.865l0.093 0.091c2.419 2.322 5.567 3.601 8.862 3.601 3.286 0 6.517-1.347 8.863-3.692 2.382-2.382 3.694-5.53 3.694-8.865v-17.155c0-7.519-2.974-14.636-8.376-20.038-5.402-5.401-12.552-8.376-20.131-8.376-7.559 0-14.573 3.023-19.725 8.485-5.004 5.247-7.761 12.324-7.761 19.929v17.155c0 3.394 1.279 6.542 3.601 8.864 2.381 2.381 5.529 3.693 8.863 3.693 3.323 0 6.567-1.329 8.91-3.647 2.437-2.364 3.833-5.607 3.833-8.91" fill="#00b25a" />
</g>
<g transform="translate(1412 1437.9)">
        <path d="m0 0c5.005-5.245 7.761-12.322 7.761-19.929v-17.154c0-3.395-1.28-6.542-3.601-8.865-2.383-2.382-5.53-3.693-8.864-3.693-3.322 0-6.566 1.329-8.91 3.647-2.436 2.364-3.832 5.607-3.832 8.911v17.154c0 1.117-0.281 2.109-0.75 2.651l-0.045 0.053c-0.116 0.138-0.426 0.504-1.486 0.504-0.979 0-1.791-0.317-2.477-0.969l-0.065-0.06c-0.502-0.464-0.756-1.15-0.756-2.04v-17.293c0-3.334-1.312-6.483-3.695-8.865l-0.093-0.092c-2.42-2.322-5.567-3.601-8.863-3.601-3.285 0-6.515 1.346-8.863 3.693-2.382 2.382-3.693 5.531-3.693 8.865v17.154c0 7.519 2.974 14.636 8.376 20.037 5.401 5.402 12.55 8.377 20.129 8.377 7.561 0 14.576-3.022 19.727-8.485" fill="#ffc519" />
    </g>
<g transform="translate(1420 1418.6)">
    <path d="m0 0v-17.155c0-1.117 0.28-2.108 0.75-2.651l0.046-0.054c0.116-0.138 0.426-0.503 1.483-0.503 0.982 0 1.792 0.318 2.48 0.969l0.063 0.06c0.503 0.464 0.758 1.151 0.758 2.04v17.294c0 3.335 1.312 6.483 3.694 8.865l0.093 0.091c2.419 2.322 5.567 3.601 8.862 3.601 3.286 0 6.517-1.347 8.863-3.692 2.382-2.382 3.694-5.53 3.694-8.865v-17.155c0-7.519-2.974-14.636-8.376-20.038-5.402-5.401-12.552-8.376-20.131-8.376-7.559 0-14.573 3.023-19.725 8.485-5.004 5.247-7.761 12.324-7.761 19.929v17.155c0 3.394 1.279 6.542 3.601 8.864 2.381 2.381 5.529 3.693 8.863 3.693 3.323 0 6.567-1.329 8.91-3.647 2.437-2.364 3.833-5.607 3.833-8.91" fill="#f3703a" />
</g>
<g transform="translate(1474 1437.9)">
        <path d="m0 0c5.005-5.245 7.761-12.322 7.761-19.929v-17.154c0-3.395-1.28-6.542-3.601-8.865-2.383-2.382-5.53-3.693-8.864-3.693-3.322 0-6.566 1.329-8.91 3.647-2.436 2.364-3.832 5.607-3.832 8.911v17.154c0 1.117-0.281 2.109-0.75 2.651l-0.045 0.053c-0.116 0.138-0.426 0.504-1.486 0.504-0.979 0-1.791-0.317-2.477-0.969l-0.065-0.06c-0.502-0.464-0.756-1.15-0.756-2.04v-17.293c0-3.334-1.312-6.483-3.695-8.865l-0.093-0.092c-2.42-2.322-5.567-3.601-8.863-3.601-3.285 0-6.515 1.346-8.863 3.693-2.382 2.382-3.693 5.531-3.693 8.865v17.154c0 7.519 2.974 14.636 8.376 20.037 5.401 5.402 12.55 8.377 20.129 8.377 7.561 0 14.576-3.022 19.727-8.485" fill="#e11d43" />
    </g>
<g transform="translate(1482 1418.6)">
    <path d="m0 0v-17.155c0-1.117 0.28-2.108 0.75-2.651l0.046-0.054c0.116-0.138 0.426-0.503 1.483-0.503 0.982 0 1.792 0.318 2.48 0.969l0.063 0.06c0.503 0.464 0.758 1.151 0.758 2.04v17.294c0 3.335 1.312 6.483 3.694 8.865l0.093 0.091c2.419 2.322 5.567 3.601 8.862 3.601 3.286 0 6.517-1.347 8.863-3.692 2.382-2.382 3.694-5.53 3.694-8.865v-17.155c0-7.519-2.974-14.636-8.376-20.038-5.402-5.401-12.552-8.376-20.131-8.376-7.559 0-14.573 3.023-19.725 8.485-5.004 5.247-7.761 12.324-7.761 19.929v17.155c0 3.394 1.279 6.542 3.601 8.864 2.381 2.381 5.529 3.693 8.863 3.693 3.323 0 6.567-1.329 8.91-3.647 2.437-2.364 3.833-5.607 3.833-8.91" fill="#5b57a6" />
</g>
<g transform="translate(1536 1437.9)">
        <path d="m0 0c5.005-5.245 7.761-12.322 7.761-19.929v-17.154c0-3.395-1.28-6.542-3.601-8.865-2.383-2.382-5.53-3.693-8.864-3.693-3.322 0-6.566 1.329-8.91 3.647-2.436 2.364-3.832 5.607-3.832 8.911v17.154c0 1.117-0.281 2.109-0.75 2.651l-0.045 0.053c-0.116 0.138-0.426 0.504-1.486 0.504-0.979 0-1.791-0.317-2.477-0.969l-0.065-0.06c-0.502-0.464-0.756-1.15-0.756-2.04v-17.293c0-3.334-1.312-6.483-3.695-8.865l-0.093-0.092c-2.42-2.322-5.567-3.601-8.863-3.601-3.285 0-6.515 1.346-8.863 3.693-2.382 2.382-3.693 5.531-3.693 8.865v17.154c0 7.519 2.974 14.636 8.376 20.037 5.401 5.402 12.55 8.377 20.129 8.377 7.561 0 14.576-3.022 19.727-8.485" fill="#00b25a" />
    </g>
<g transform="translate(1544 1418.6)">
    <path d="m0 0v-17.155c0-1.117 0.28-2.108 0.75-2.651l0.046-0.054c0.116-0.138 0.426-0.503 1.483-0.503 0.982 0 1.792 0.318 2.48 0.969l0.063 0.06c0.503 0.464 0.758 1.151 0.758 2.04v17.294c0 3.335 1.312 6.483 3.694 8.865l0.093 0.091c2.419 2.322 5.567 3.601 8.862 3.601 3.286 0 6.517-1.347 8.863-3.692 2.382-2.382 3.694-5.53 3.694-8.865v-17.155c0-7.519-2.974-14.636-8.376-20.038-5.402-5.401-12.552-8.376-20.131-8.376-7.559 0-14.573 3.023-19.725 8.485-5.004 5.247-7.761 12.324-7.761 19.929v17.155c0 3.394 1.279 6.542 3.601 8.864 2.381 2.381 5.529 3.693 8.863 3.693 3.323 0 6.567-1.329 8.91-3.647 2.437-2.364 3.833-5.607 3.833-8.91" fill="#ffc519" />
</g>
<g transform="translate(1598 1437.9)">
        <path d="m0 0c5.005-5.245 7.761-12.322 7.761-19.929v-17.154c0-3.395-1.28-6.542-3.601-8.865-2.383-2.382-5.53-3.693-8.864-3.693-3.322 0-6.566 1.329-8.91 3.647-2.436 2.364-3.832 5.607-3.832 8.911v17.154c0 1.117-0.281 2.109-0.75 2.651l-0.045 0.053c-0.116 0.138-0.426 0.504-1.486 0.504-0.979 0-1.791-0.317-2.477-0.969l-0.065-0.06c-0.502-0.464-0.756-1.15-0.756-2.04v-17.293c0-3.334-1.312-6.483-3.695-8.865l-0.093-0.092c-2.42-2.322-5.567-3.601-8.863-3.601-3.285 0-6.515 1.346-8.863 3.693-2.382 2.382-3.693 5.531-3.693 8.865v17.154c0 7.519 2.974 14.636 8.376 20.037 5.401 5.402 12.55 8.377 20.129 8.377 7.561 0 14.576-3.022 19.727-8.485" fill="#f3703a" />
    </g>
<g transform="translate(1606 1418.6)">
    <path d="m0 0v-17.155c0-1.117 0.28-2.108 0.75-2.651l0.046-0.054c0.116-0.138 0.426-0.503 1.483-0.503 0.982 0 1.792 0.318 2.48 0.969l0.063 0.06c0.503 0.464 0.758 1.151 0.758 2.04v17.294c0 3.335 1.312 6.483 3.694 8.865l0.093 0.091c2.419 2.322 5.567 3.601 8.862 3.601 3.286 0 6.517-1.347 8.863-3.692 2.382-2.382 3.694-5.53 3.694-8.865v-17.155c0-7.519-2.974-14.636-8.376-20.038-5.402-5.401-12.552-8.376-20.131-8.376-7.559 0-14.573 3.023-19.725 8.485-5.004 5.247-7.761 12.324-7.761 19.929v17.155c0 3.394 1.279 6.542 3.601 8.864 2.381 2.381 5.529 3.693 8.863 3.693 3.323 0 6.567-1.329 8.91-3.647 2.437-2.364 3.833-5.607 3.833-8.91" fill="#e11d43" />
</g>
<g transform="translate(1660 1437.9)">
        <path d="m0 0c5.005-5.245 7.761-12.322 7.761-19.929v-17.154c0-3.395-1.28-6.542-3.601-8.865-2.383-2.382-5.53-3.693-8.864-3.693-3.322 0-6.566 1.329-8.91 3.647-2.436 2.364-3.832 5.607-3.832 8.911v17.154c0 1.117-0.281 2.109-0.75 2.651l-0.045 0.053c-0.116 0.138-0.426 0.504-1.486 0.504-0.979 0-1.791-0.317-2.477-0.969l-0.065-0.06c-0.502-0.464-0.756-1.15-0.756-2.04v-17.293c0-3.334-1.312-6.483-3.695-8.865l-0.093-0.092c-2.42-2.322-5.567-3.601-8.863-3.601-3.285 0-6.515 1.346-8.863 3.693-2.382 2.382-3.693 5.531-3.693 8.865v17.154c0 7.519 2.974 14.636 8.376 20.037 5.401 5.402 12.55 8.377 20.129 8.377 7.561 0 14.576-3.022 19.727-8.485" fill="#5b57a6" />
    </g>
<g transform="translate(1668 1418.6)">
    <path d="m0 0v-17.155c0-1.117 0.28-2.108 0.75-2.651l0.046-0.054c0.116-0.138 0.426-0.503 1.483-0.503 0.982 0 1.792 0.318 2.48 0.969l0.063 0.06c0.503 0.464 0.758 1.151 0.758 2.04v17.294c0 3.335 1.312 6.483 3.694 8.865l0.093 0.091c2.419 2.322 5.567 3.601 8.862 3.601 3.286 0 6.517-1.347 8.863-3.692 2.382-2.382 3.694-5.53 3.694-8.865v-17.155c0-7.519-2.974-14.636-8.376-20.038-5.402-5.401-12.552-8.376-20.131-8.376-7.559 0-14.573 3.023-19.725 8.485-5.004 5.247-7.761 12.324-7.761 19.929v17.155c0 3.394 1.279 6.542 3.601 8.864 2.381 2.381 5.529 3.693 8.863 3.693 3.323 0 6.567-1.329 8.91-3.647 2.437-2.364 3.833-5.607 3.833-8.91" fill="#00b25a" />
</g>
<g transform="translate(1722 1437.9)">
        <path d="m0 0c5.005-5.245 7.761-12.322 7.761-19.929v-17.154c0-3.395-1.28-6.542-3.601-8.865-2.383-2.382-5.53-3.693-8.864-3.693-3.322 0-6.566 1.329-8.91 3.647-2.436 2.364-3.832 5.607-3.832 8.911v17.154c0 1.117-0.281 2.109-0.75 2.651l-0.045 0.053c-0.116 0.138-0.426 0.504-1.486 0.504-0.979 0-1.791-0.317-2.477-0.969l-0.065-0.06c-0.502-0.464-0.756-1.15-0.756-2.04v-17.293c0-3.334-1.312-6.483-3.695-8.865l-0.093-0.092c-2.42-2.322-5.567-3.601-8.863-3.601-3.285 0-6.515 1.346-8.863 3.693-2.382 2.382-3.693 5.531-3.693 8.865v17.154c0 7.519 2.974 14.636 8.376 20.037 5.401 5.402 12.55 8.377 20.129 8.377 7.561 0 14.576-3.022 19.727-8.485" fill="#ffc519" />
    </g>
<g transform="translate(1730 1418.6)">
    <path d="m0 0v-17.155c0-1.117 0.28-2.108 0.75-2.651l0.046-0.054c0.116-0.138 0.426-0.503 1.483-0.503 0.982 0 1.792 0.318 2.48 0.969l0.063 0.06c0.503 0.464 0.758 1.151 0.758 2.04v17.294c0 3.335 1.312 6.483 3.694 8.865l0.093 0.091c2.419 2.322 5.567 3.601 8.862 3.601 3.286 0 6.517-1.347 8.863-3.692 2.382-2.382 3.694-5.53 3.694-8.865v-17.155c0-7.519-2.974-14.636-8.376-20.038-5.402-5.401-12.552-8.376-20.131-8.376-7.559 0-14.573 3.023-19.725 8.485-5.004 5.247-7.761 12.324-7.761 19.929v17.155c0 3.394 1.279 6.542 3.601 8.864 2.381 2.381 5.529 3.693 8.863 3.693 3.323 0 6.567-1.329 8.91-3.647 2.437-2.364 3.833-5.607 3.833-8.91" fill="#f3703a" />
</g>
<g transform="translate(1784 1437.9)">
        <path d="m0 0c5.005-5.245 7.761-12.322 7.761-19.929v-17.154c0-3.395-1.28-6.542-3.601-8.865-2.383-2.382-5.53-3.693-8.864-3.693-3.322 0-6.566 1.329-8.91 3.647-2.436 2.364-3.832 5.607-3.832 8.911v17.154c0 1.117-0.281 2.109-0.75 2.651l-0.045 0.053c-0.116 0.138-0.426 0.504-1.486 0.504-0.979 0-1.791-0.317-2.477-0.969l-0.065-0.06c-0.502-0.464-0.756-1.15-0.756-2.04v-17.293c0-3.334-1.312-6.483-3.695-8.865l-0.093-0.092c-2.42-2.322-5.567-3.601-8.863-3.601-3.285 0-6.515 1.346-8.863 3.693-2.382 2.382-3.693 5.531-3.693 8.865v17.154c0 7.519 2.974 14.636 8.376 20.037 5.401 5.402 12.55 8.377 20.129 8.377 7.561 0 14.576-3.022 19.727-8.485" fill="#e11d43" />
    </g>
<g transform="translate(1792 1418.6)">
    <path d="m0 0v-17.155c0-1.117 0.28-2.108 0.75-2.651l0.046-0.054c0.116-0.138 0.426-0.503 1.483-0.503 0.982 0 1.792 0.318 2.48 0.969l0.063 0.06c0.503 0.464 0.758 1.151 0.758 2.04v17.294c0 3.335 1.312 6.483 3.694 8.865l0.093 0.091c2.419 2.322 5.567 3.601 8.862 3.601 3.286 0 6.517-1.347 8.863-3.692 2.382-2.382 3.694-5.53 3.694-8.865v-17.155c0-7.519-2.974-14.636-8.376-20.038-5.402-5.401-12.552-8.376-20.131-8.376-7.559 0-14.573 3.023-19.725 8.485-5.004 5.247-7.761 12.324-7.761 19.929v17.155c0 3.394 1.279 6.542 3.601 8.864 2.381 2.381 5.529 3.693 8.863 3.693 3.323 0 6.567-1.329 8.91-3.647 2.437-2.364 3.833-5.607 3.833-8.91" fill="#5b57a6" />
</g>
<g transform="translate(1846 1437.9)">
        <path d="m0 0c5.005-5.245 7.761-12.322 7.761-19.929v-17.154c0-3.395-1.28-6.542-3.601-8.865-2.383-2.382-5.53-3.693-8.864-3.693-3.322 0-6.566 1.329-8.91 3.647-2.436 2.364-3.832 5.607-3.832 8.911v17.154c0 1.117-0.281 2.109-0.75 2.651l-0.045 0.053c-0.116 0.138-0.426 0.504-1.486 0.504-0.979 0-1.791-0.317-2.477-0.969l-0.065-0.06c-0.502-0.464-0.756-1.15-0.756-2.04v-17.293c0-3.334-1.312-6.483-3.695-8.865l-0.093-0.092c-2.42-2.322-5.567-3.601-8.863-3.601-3.285 0-6.515 1.346-8.863 3.693-2.382 2.382-3.693 5.531-3.693 8.865v17.154c0 7.519 2.974 14.636 8.376 20.037 5.401 5.402 12.55 8.377 20.129 8.377 7.561 0 14.576-3.022 19.727-8.485" fill="#00b25a" />
    </g>
<g transform="translate(1854 1418.6)">
    <path d="m0 0v-17.155c0-1.117 0.28-2.108 0.75-2.651l0.046-0.054c0.116-0.138 0.426-0.503 1.483-0.503 0.982 0 1.792 0.318 2.48 0.969l0.063 0.06c0.503 0.464 0.758 1.151 0.758 2.04v17.294c0 3.335 1.312 6.483 3.694 8.865l0.093 0.091c2.419 2.322 5.567 3.601 8.862 3.601 3.286 0 6.517-1.347 8.863-3.692 2.382-2.382 3.694-5.53 3.694-8.865v-17.155c0-7.519-2.974-14.636-8.376-20.038-5.402-5.401-12.552-8.376-20.131-8.376-7.559 0-14.573 3.023-19.725 8.485-5.004 5.247-7.761 12.324-7.761 19.929v17.155c0 3.394 1.279 6.542 3.601 8.864 2.381 2.381 5.529 3.693 8.863 3.693 3.323 0 6.567-1.329 8.91-3.647 2.437-2.364 3.833-5.607 3.833-8.91" fill="#ffc519" />
</g>
<g transform="translate(1908 1437.9)">
        <path d="m0 0c5.005-5.245 7.761-12.322 7.761-19.929v-17.154c0-3.395-1.28-6.542-3.601-8.865-2.383-2.382-5.53-3.693-8.864-3.693-3.322 0-6.566 1.329-8.91 3.647-2.436 2.364-3.832 5.607-3.832 8.911v17.154c0 1.117-0.281 2.109-0.75 2.651l-0.045 0.053c-0.116 0.138-0.426 0.504-1.486 0.504-0.979 0-1.791-0.317-2.477-0.969l-0.065-0.06c-0.502-0.464-0.756-1.15-0.756-2.04v-17.293c0-3.334-1.312-6.483-3.695-8.865l-0.093-0.092c-2.42-2.322-5.567-3.601-8.863-3.601-3.285 0-6.515 1.346-8.863 3.693-2.382 2.382-3.693 5.531-3.693 8.865v17.154c0 7.519 2.974 14.636 8.376 20.037 5.401 5.402 12.55 8.377 20.129 8.377 7.561 0 14.576-3.022 19.727-8.485" fill="#f3703a" />
    </g>
<g transform="translate(1916 1418.6)">
    <path d="m0 0v-17.155c0-1.117 0.28-2.108 0.75-2.651l0.046-0.054c0.116-0.138 0.426-0.503 1.483-0.503 0.982 0 1.792 0.318 2.48 0.969l0.063 0.06c0.503 0.464 0.758 1.151 0.758 2.04v17.294c0 3.335 1.312 6.483 3.694 8.865l0.093 0.091c2.419 2.322 5.567 3.601 8.862 3.601 3.286 0 6.517-1.347 8.863-3.692 2.382-2.382 3.694-5.53 3.694-8.865v-17.155c0-7.519-2.974-14.636-8.376-20.038-5.402-5.401-12.552-8.376-20.131-8.376-7.559 0-14.573 3.023-19.725 8.485-5.004 5.247-7.761 12.324-7.761 19.929v17.155c0 3.394 1.279 6.542 3.601 8.864 2.381 2.381 5.529 3.693 8.863 3.693 3.323 0 6.567-1.329 8.91-3.647 2.437-2.364 3.833-5.607 3.833-8.91" fill="#e11d43" />
</g>
<g transform="translate(1970 1437.9)">
        <path d="m0 0c5.005-5.245 7.761-12.322 7.761-19.929v-17.154c0-3.395-1.28-6.542-3.601-8.865-2.383-2.382-5.53-3.693-8.864-3.693-3.322 0-6.566 1.329-8.91 3.647-2.436 2.364-3.832 5.607-3.832 8.911v17.154c0 1.117-0.281 2.109-0.75 2.651l-0.045 0.053c-0.116 0.138-0.426 0.504-1.486 0.504-0.979 0-1.791-0.317-2.477-0.969l-0.065-0.06c-0.502-0.464-0.756-1.15-0.756-2.04v-17.293c0-3.334-1.312-6.483-3.695-8.865l-0.093-0.092c-2.42-2.322-5.567-3.601-8.863-3.601-3.285 0-6.515 1.346-8.863 3.693-2.382 2.382-3.693 5.531-3.693 8.865v17.154c0 7.519 2.974 14.636 8.376 20.037 5.401 5.402 12.55 8.377 20.129 8.377 7.561 0 14.576-3.022 19.727-8.485" fill="#5b57a6" />
    </g>
<g transform="translate(1978 1418.6)">
    <path d="m0 0v-17.155c0-1.117 0.28-2.108 0.75-2.651l0.046-0.054c0.116-0.138 0.426-0.503 1.483-0.503 0.982 0 1.792 0.318 2.48 0.969l0.063 0.06c0.503 0.464 0.758 1.151 0.758 2.04v17.294c0 3.335 1.312 6.483 3.694 8.865l0.093 0.091c2.419 2.322 5.567 3.601 8.862 3.601 3.286 0 6.517-1.347 8.863-3.692 2.382-2.382 3.694-5.53 3.694-8.865v-17.155c0-7.519-2.974-14.636-8.376-20.038-5.402-5.401-12.552-8.376-20.131-8.376-7.559 0-14.573 3.023-19.725 8.485-5.004 5.247-7.761 12.324-7.761 19.929v17.155c0 3.394 1.279 6.542 3.601 8.864 2.381 2.381 5.529 3.693 8.863 3.693 3.323 0 6.567-1.329 8.91-3.647 2.437-2.364 3.833-5.607 3.833-8.91" fill="#00b25a" />
</g>
<g transform="translate(2032 1437.9)">
        <path d="m0 0c5.005-5.245 7.761-12.322 7.761-19.929v-17.154c0-3.395-1.28-6.542-3.601-8.865-2.383-2.382-5.53-3.693-8.864-3.693-3.322 0-6.566 1.329-8.91 3.647-2.436 2.364-3.832 5.607-3.832 8.911v17.154c0 1.117-0.281 2.109-0.75 2.651l-0.045 0.053c-0.116 0.138-0.426 0.504-1.486 0.504-0.979 0-1.791-0.317-2.477-0.969l-0.065-0.06c-0.502-0.464-0.756-1.15-0.756-2.04v-17.293c0-3.334-1.312-6.483-3.695-8.865l-0.093-0.092c-2.42-2.322-5.567-3.601-8.863-3.601-3.285 0-6.515 1.346-8.863 3.693-2.382 2.382-3.693 5.531-3.693 8.865v17.154c0 7.519 2.974 14.636 8.376 20.037 5.401 5.402 12.55 8.377 20.129 8.377 7.561 0 14.576-3.022 19.727-8.485" fill="#ffc519" />
    </g>
<g transform="translate(2040 1418.6)">
    <path d="m0 0v-17.155c0-1.117 0.28-2.108 0.75-2.651l0.046-0.054c0.116-0.138 0.426-0.503 1.483-0.503 0.982 0 1.792 0.318 2.48 0.969l0.063 0.06c0.503 0.464 0.758 1.151 0.758 2.04v17.294c0 3.335 1.312 6.483 3.694 8.865l0.093 0.091c2.419 2.322 5.567 3.601 8.862 3.601 3.286 0 6.517-1.347 8.863-3.692 2.382-2.382 3.694-5.53 3.694-8.865v-17.155c0-7.519-2.974-14.636-8.376-20.038-5.402-5.401-12.552-8.376-20.131-8.376-7.559 0-14.573 3.023-19.725 8.485-5.004 5.247-7.761 12.324-7.761 19.929v17.155c0 3.394 1.279 6.542 3.601 8.864 2.381 2.381 5.529 3.693 8.863 3.693 3.323 0 6.567-1.329 8.91-3.647 2.437-2.364 3.833-5.607 3.833-8.91" fill="#f3703a" />
</g>
<g transform="translate(2094 1437.9)">
        <path d="m0 0c5.005-5.245 7.761-12.322 7.761-19.929v-17.154c0-3.395-1.28-6.542-3.601-8.865-2.383-2.382-5.53-3.693-8.864-3.693-3.322 0-6.566 1.329-8.91 3.647-2.436 2.364-3.832 5.607-3.832 8.911v17.154c0 1.117-0.281 2.109-0.75 2.651l-0.045 0.053c-0.116 0.138-0.426 0.504-1.486 0.504-0.979 0-1.791-0.317-2.477-0.969l-0.065-0.06c-0.502-0.464-0.756-1.15-0.756-2.04v-17.293c0-3.334-1.312-6.483-3.695-8.865l-0.093-0.092c-2.42-2.322-5.567-3.601-8.863-3.601-3.285 0-6.515 1.346-8.863 3.693-2.382 2.382-3.693 5.531-3.693 8.865v17.154c0 7.519 2.974 14.636 8.376 20.037 5.401 5.402 12.55 8.377 20.129 8.377 7.561 0 14.576-3.022 19.727-8.485" fill="#e11d43" />
    </g>
<g transform="translate(2102 1418.6)">
    <path d="m0 0v-17.155c0-1.117 0.28-2.108 0.75-2.651l0.046-0.054c0.116-0.138 0.426-0.503 1.483-0.503 0.982 0 1.792 0.318 2.48 0.969l0.063 0.06c0.503 0.464 0.758 1.151 0.758 2.04v17.294c0 3.335 1.312 6.483 3.694 8.865l0.093 0.091c2.419 2.322 5.567 3.601 8.862 3.601 3.286 0 6.517-1.347 8.863-3.692 2.382-2.382 3.694-5.53 3.694-8.865v-17.155c0-7.519-2.974-14.636-8.376-20.038-5.402-5.401-12.552-8.376-20.131-8.376-7.559 0-14.573 3.023-19.725 8.485-5.004 5.247-7.761 12.324-7.761 19.929v17.155c0 3.394 1.279 6.542 3.601 8.864 2.381 2.381 5.529 3.693 8.863 3.693 3.323 0 6.567-1.329 8.91-3.647 2.437-2.364 3.833-5.607 3.833-8.91" fill="#5b57a6" />
</g>
<g transform="translate(2156 1437.9)">
        <path d="m0 0c5.005-5.245 7.761-12.322 7.761-19.929v-17.154c0-3.395-1.28-6.542-3.601-8.865-2.383-2.382-5.53-3.693-8.864-3.693-3.322 0-6.566 1.329-8.91 3.647-2.436 2.364-3.832 5.607-3.832 8.911v17.154c0 1.117-0.281 2.109-0.75 2.651l-0.045 0.053c-0.116 0.138-0.426 0.504-1.486 0.504-0.979 0-1.791-0.317-2.477-0.969l-0.065-0.06c-0.502-0.464-0.756-1.15-0.756-2.04v-17.293c0-3.334-1.312-6.483-3.695-8.865l-0.093-0.092c-2.42-2.322-5.567-3.601-8.863-3.601-3.285 0-6.515 1.346-8.863 3.693-2.382 2.382-3.693 5.531-3.693 8.865v17.154c0 7.519 2.974 14.636 8.376 20.037 5.401 5.402 12.55 8.377 20.129 8.377 7.561 0 14.576-3.022 19.727-8.485" fill="#00b25a" />
    </g>
<g transform="translate(2164 1418.6)">
    <path d="m0 0v-17.155c0-1.117 0.28-2.108 0.75-2.651l0.046-0.054c0.116-0.138 0.426-0.503 1.483-0.503 0.982 0 1.792 0.318 2.48 0.969l0.063 0.06c0.503 0.464 0.758 1.151 0.758 2.04v17.294c0 3.335 1.312 6.483 3.694 8.865l0.093 0.091c2.419 2.322 5.567 3.601 8.862 3.601 3.286 0 6.517-1.347 8.863-3.692 2.382-2.382 3.694-5.53 3.694-8.865v-17.155c0-7.519-2.974-14.636-8.376-20.038-5.402-5.401-12.552-8.376-20.131-8.376-7.559 0-14.573 3.023-19.725 8.485-5.004 5.247-7.761 12.324-7.761 19.929v17.155c0 3.394 1.279 6.542 3.601 8.864 2.381 2.381 5.529 3.693 8.863 3.693 3.323 0 6.567-1.329 8.91-3.647 2.437-2.364 3.833-5.607 3.833-8.91" fill="#ffc519" />
</g>
<g transform="translate(2218 1437.9)">
        <path d="m0 0c5.005-5.245 7.761-12.322 7.761-19.929v-17.154c0-3.395-1.28-6.542-3.601-8.865-2.383-2.382-5.53-3.693-8.864-3.693-3.322 0-6.566 1.329-8.91 3.647-2.436 2.364-3.832 5.607-3.832 8.911v17.154c0 1.117-0.281 2.109-0.75 2.651l-0.045 0.053c-0.116 0.138-0.426 0.504-1.486 0.504-0.979 0-1.791-0.317-2.477-0.969l-0.065-0.06c-0.502-0.464-0.756-1.15-0.756-2.04v-17.293c0-3.334-1.312-6.483-3.695-8.865l-0.093-0.092c-2.42-2.322-5.567-3.601-8.863-3.601-3.285 0-6.515 1.346-8.863 3.693-2.382 2.382-3.693 5.531-3.693 8.865v17.154c0 7.519 2.974 14.636 8.376 20.037 5.401 5.402 12.55 8.377 20.129 8.377 7.561 0 14.576-3.022 19.727-8.485" fill="#f3703a" />
    </g>
<g transform="translate(2226 1418.6)">
    <path d="m0 0v-17.155c0-1.117 0.28-2.108 0.75-2.651l0.046-0.054c0.116-0.138 0.426-0.503 1.483-0.503 0.982 0 1.792 0.318 2.48 0.969l0.063 0.06c0.503 0.464 0.758 1.151 0.758 2.04v17.294c0 3.335 1.312 6.483 3.694 8.865l0.093 0.091c2.419 2.322 5.567 3.601 8.862 3.601 3.286 0 6.517-1.347 8.863-3.692 2.382-2.382 3.694-5.53 3.694-8.865v-17.155c0-7.519-2.974-14.636-8.376-20.038-5.402-5.401-12.552-8.376-20.131-8.376-7.559 0-14.573 3.023-19.725 8.485-5.004 5.247-7.761 12.324-7.761 19.929v17.155c0 3.394 1.279 6.542 3.601 8.864 2.381 2.381 5.529 3.693 8.863 3.693 3.323 0 6.567-1.329 8.91-3.647 2.437-2.364 3.833-5.607 3.833-8.91" fill="#e11d43" />
</g>
<g transform="translate(2280 1437.9)">
        <path d="m0 0c5.005-5.245 7.761-12.322 7.761-19.929v-17.154c0-3.395-1.28-6.542-3.601-8.865-2.383-2.382-5.53-3.693-8.864-3.693-3.322 0-6.566 1.329-8.91 3.647-2.436 2.364-3.832 5.607-3.832 8.911v17.154c0 1.117-0.281 2.109-0.75 2.651l-0.045 0.053c-0.116 0.138-0.426 0.504-1.486 0.504-0.979 0-1.791-0.317-2.477-0.969l-0.065-0.06c-0.502-0.464-0.756-1.15-0.756-2.04v-17.293c0-3.334-1.312-6.483-3.695-8.865l-0.093-0.092c-2.42-2.322-5.567-3.601-8.863-3.601-3.285 0-6.515 1.346-8.863 3.693-2.382 2.382-3.693 5.531-3.693 8.865v17.154c0 7.519 2.974 14.636 8.376 20.037 5.401 5.402 12.55 8.377 20.129 8.377 7.561 0 14.576-3.022 19.727-8.485" fill="#5b57a6" />
    </g>
<g transform="translate(2288 1418.6)">
    <path d="m0 0v-17.155c0-1.117 0.28-2.108 0.75-2.651l0.046-0.054c0.116-0.138 0.426-0.503 1.483-0.503 0.982 0 1.792 0.318 2.48 0.969l0.063 0.06c0.503 0.464 0.758 1.151 0.758 2.04v17.294c0 3.335 1.312 6.483 3.694 8.865l0.093 0.091c2.419 2.322 5.567 3.601 8.862 3.601 3.286 0 6.517-1.347 8.863-3.692 2.382-2.382 3.694-5.53 3.694-8.865v-17.155c0-7.519-2.974-14.636-8.376-20.038-5.402-5.401-12.552-8.376-20.131-8.376-7.559 0-14.573 3.023-19.725 8.485-5.004 5.247-7.761 12.324-7.761 19.929v17.155c0 3.394 1.279 6.542 3.601 8.864 2.381 2.381 5.529 3.693 8.863 3.693 3.323 0 6.567-1.329 8.91-3.647 2.437-2.364 3.833-5.607 3.833-8.91" fill="#00b25a" />
</g>
<g transform="translate(2342 1437.9)">
        <path d="m0 0c5.005-5.245 7.761-12.322 7.761-19.929v-17.154c0-3.395-1.28-6.542-3.601-8.865-2.383-2.382-5.53-3.693-8.864-3.693-3.322 0-6.566 1.329-8.91 3.647-2.436 2.364-3.832 5.607-3.832 8.911v17.154c0 1.117-0.281 2.109-0.75 2.651l-0.045 0.053c-0.116 0.138-0.426 0.504-1.486 0.504-0.979 0-1.791-0.317-2.477-0.969l-0.065-0.06c-0.502-0.464-0.756-1.15-0.756-2.04v-17.293c0-3.334-1.312-6.483-3.695-8.865l-0.093-0.092c-2.42-2.322-5.567-3.601-8.863-3.601-3.285 0-6.515 1.346-8.863 3.693-2.382 2.382-3.693 5.531-3.693 8.865v17.154c0 7.519 2.974 14.636 8.376 20.037 5.401 5.402 12.55 8.377 20.129 8.377 7.561 0 14.576-3.022 19.727-8.485" fill="#ffc519" />
    </g>
<g transform="translate(2350 1418.6)">
    <path d="m0 0v-17.155c0-1.117 0.28-2.108 0.75-2.651l0.046-0.054c0.116-0.138 0.426-0.503 1.483-0.503 0.982 0 1.792 0.318 2.48 0.969l0.063 0.06c0.503 0.464 0.758 1.151 0.758 2.04v17.294c0 3.335 1.312 6.483 3.694 8.865l0.093 0.091c2.419 2.322 5.567 3.601 8.862 3.601 3.286 0 6.517-1.347 8.863-3.692 2.382-2.382 3.694-5.53 3.694-8.865v-17.155c0-7.519-2.974-14.636-8.376-20.038-5.402-5.401-12.552-8.376-20.131-8.376-7.559 0-14.573 3.023-19.725 8.485-5.004 5.247-7.761 12.324-7.761 19.929v17.155c0 3.394 1.279 6.542 3.601 8.864 2.381 2.381 5.529 3.693 8.863 3.693 3.323 0 6.567-1.329 8.91-3.647 2.437-2.364 3.833-5.607 3.833-8.91" fill="#f3703a" />
</g>
<g transform="translate(2404 1437.9)">
        <path d="m0 0c5.005-5.245 7.761-12.322 7.761-19.929v-17.154c0-3.395-1.28-6.542-3.601-8.865-2.383-2.382-5.53-3.693-8.864-3.693-3.322 0-6.566 1.329-8.91 3.647-2.436 2.364-3.832 5.607-3.832 8.911v17.154c0 1.117-0.281 2.109-0.75 2.651l-0.045 0.053c-0.116 0.138-0.426 0.504-1.486 0.504-0.979 0-1.791-0.317-2.477-0.969l-0.065-0.06c-0.502-0.464-0.756-1.15-0.756-2.04v-17.293c0-3.334-1.312-6.483-3.695-8.865l-0.093-0.092c-2.42-2.322-5.567-3.601-8.863-3.601-3.285 0-6.515 1.346-8.863 3.693-2.382 2.382-3.693 5.531-3.693 8.865v17.154c0 7.519 2.974 14.636 8.376 20.037 5.401 5.402 12.55 8.377 20.129 8.377 7.561 0 14.576-3.022 19.727-8.485" fill="#e11d43" />
    </g>
<g transform="translate(2412 1418.6)">
    <path d="m0 0v-17.155c0-1.117 0.28-2.108 0.75-2.651l0.046-0.054c0.116-0.138 0.426-0.503 1.483-0.503 0.982 0 1.792 0.318 2.48 0.969l0.063 0.06c0.503 0.464 0.758 1.151 0.758 2.04v17.294c0 3.335 1.312 6.483 3.694 8.865l0.093 0.091c2.419 2.322 5.567 3.601 8.862 3.601 3.286 0 6.517-1.347 8.863-3.692 2.382-2.382 3.694-5.53 3.694-8.865v-17.155c0-7.519-2.974-14.636-8.376-20.038-5.402-5.401-12.552-8.376-20.131-8.376-7.559 0-14.573 3.023-19.725 8.485-5.004 5.247-7.761 12.324-7.761 19.929v17.155c0 3.394 1.279 6.542 3.601 8.864 2.381 2.381 5.529 3.693 8.863 3.693 3.323 0 6.567-1.329 8.91-3.647 2.437-2.364 3.833-5.607 3.833-8.91" fill="#5b57a6" />
</g>
<g transform="translate(2466 1437.9)">
        <path d="m0 0c5.005-5.245 7.761-12.322 7.761-19.929v-17.154c0-3.395-1.28-6.542-3.601-8.865-2.383-2.382-5.53-3.693-8.864-3.693-3.322 0-6.566 1.329-8.91 3.647-2.436 2.364-3.832 5.607-3.832 8.911v17.154c0 1.117-0.281 2.109-0.75 2.651l-0.045 0.053c-0.116 0.138-0.426 0.504-1.486 0.504-0.979 0-1.791-0.317-2.477-0.969l-0.065-0.06c-0.502-0.464-0.756-1.15-0.756-2.04v-17.293c0-3.334-1.312-6.483-3.695-8.865l-0.093-0.092c-2.42-2.322-5.567-3.601-8.863-3.601-3.285 0-6.515 1.346-8.863 3.693-2.382 2.382-3.693 5.531-3.693 8.865v17.154c0 7.519 2.974 14.636 8.376 20.037 5.401 5.402 12.55 8.377 20.129 8.377 7.561 0 14.576-3.022 19.727-8.485" fill="#00b25a" />
    </g>
<g transform="translate(2474 1418.6)">
    <path d="m0 0v-17.155c0-1.117 0.28-2.108 0.75-2.651l0.046-0.054c0.116-0.138 0.426-0.503 1.483-0.503 0.982 0 1.792 0.318 2.48 0.969l0.063 0.06c0.503 0.464 0.758 1.151 0.758 2.04v17.294c0 3.335 1.312 6.483 3.694 8.865l0.093 0.091c2.419 2.322 5.567 3.601 8.862 3.601 3.286 0 6.517-1.347 8.863-3.692 2.382-2.382 3.694-5.53 3.694-8.865v-17.155c0-7.519-2.974-14.636-8.376-20.038-5.402-5.401-12.552-8.376-20.131-8.376-7.559 0-14.573 3.023-19.725 8.485-5.004 5.247-7.761 12.324-7.761 19.929v17.155c0 3.394 1.279 6.542 3.601 8.864 2.381 2.381 5.529 3.693 8.863 3.693 3.323 0 6.567-1.329 8.91-3.647 2.437-2.364 3.833-5.607 3.833-8.91" fill="#ffc519" />
</g>
<g transform="translate(2528 1437.9)">
        <path d="m0 0c5.005-5.245 7.761-12.322 7.761-19.929v-17.154c0-3.395-1.28-6.542-3.601-8.865-2.383-2.382-5.53-3.693-8.864-3.693-3.322 0-6.566 1.329-8.91 3.647-2.436 2.364-3.832 5.607-3.832 8.911v17.154c0 1.117-0.281 2.109-0.75 2.651l-0.045 0.053c-0.116 0.138-0.426 0.504-1.486 0.504-0.979 0-1.791-0.317-2.477-0.969l-0.065-0.06c-0.502-0.464-0.756-1.15-0.756-2.04v-17.293c0-3.334-1.312-6.483-3.695-8.865l-0.093-0.092c-2.42-2.322-5.567-3.601-8.863-3.601-3.285 0-6.515 1.346-8.863 3.693-2.382 2.382-3.693 5.531-3.693 8.865v17.154c0 7.519 2.974 14.636 8.376 20.037 5.401 5.402 12.55 8.377 20.129 8.377 7.561 0 14.576-3.022 19.727-8.485" fill="#f3703a" />
    </g>
<g transform="translate(2536 1418.6)">
    <path d="m0 0v-17.155c0-1.117 0.28-2.108 0.75-2.651l0.046-0.054c0.116-0.138 0.426-0.503 1.483-0.503 0.982 0 1.792 0.318 2.48 0.969l0.063 0.06c0.503 0.464 0.758 1.151 0.758 2.04v17.294c0 3.335 1.312 6.483 3.694 8.865l0.093 0.091c2.419 2.322 5.567 3.601 8.862 3.601 3.286 0 6.517-1.347 8.863-3.692 2.382-2.382 3.694-5.53 3.694-8.865v-17.155c0-7.519-2.974-14.636-8.376-20.038-5.402-5.401-12.552-8.376-20.131-8.376-7.559 0-14.573 3.023-19.725 8.485-5.004 5.247-7.761 12.324-7.761 19.929v17.155c0 3.394 1.279 6.542 3.601 8.864 2.381 2.381 5.529 3.693 8.863 3.693 3.323 0 6.567-1.329 8.91-3.647 2.437-2.364 3.833-5.607 3.833-8.91" fill="#e11d43" />
</g>
<g transform="translate(2590 1437.9)">
        <path d="m0 0c5.005-5.245 7.761-12.322 7.761-19.929v-17.154c0-3.395-1.28-6.542-3.601-8.865-2.383-2.382-5.53-3.693-8.864-3.693-3.322 0-6.566 1.329-8.91 3.647-2.436 2.364-3.832 5.607-3.832 8.911v17.154c0 1.117-0.281 2.109-0.75 2.651l-0.045 0.053c-0.116 0.138-0.426 0.504-1.486 0.504-0.979 0-1.791-0.317-2.477-0.969l-0.065-0.06c-0.502-0.464-0.756-1.15-0.756-2.04v-17.293c0-3.334-1.312-6.483-3.695-8.865l-0.093-0.092c-2.42-2.322-5.567-3.601-8.863-3.601-3.285 0-6.515 1.346-8.863 3.693-2.382 2.382-3.693 5.531-3.693 8.865v17.154c0 7.519 2.974 14.636 8.376 20.037 5.401 5.402 12.55 8.377 20.129 8.377 7.561 0 14.576-3.022 19.727-8.485" fill="#5b57a6" />
    </g>
<g transform="translate(2598 1418.6)">
    <path d="m0 0v-17.155c0-1.117 0.28-2.108 0.75-2.651l0.046-0.054c0.116-0.138 0.426-0.503 1.483-0.503 0.982 0 1.792 0.318 2.48 0.969l0.063 0.06c0.503 0.464 0.758 1.151 0.758 2.04v17.294c0 3.335 1.312 6.483 3.694 8.865l0.093 0.091c2.419 2.322 5.567 3.601 8.862 3.601 3.286 0 6.517-1.347 8.863-3.692 2.382-2.382 3.694-5.53 3.694-8.865v-17.155c0-7.519-2.974-14.636-8.376-20.038-5.402-5.401-12.552-8.376-20.131-8.376-7.559 0-14.573 3.023-19.725 8.485-5.004 5.247-7.761 12.324-7.761 19.929v17.155c0 3.394 1.279 6.542 3.601 8.864 2.381 2.381 5.529 3.693 8.863 3.693 3.323 0 6.567-1.329 8.91-3.647 2.437-2.364 3.833-5.607 3.833-8.91" fill="#00b25a" />
</g>
<g transform="translate(2652 1437.9)">
        <path d="m0 0c5.005-5.245 7.761-12.322 7.761-19.929v-17.154c0-3.395-1.28-6.542-3.601-8.865-2.383-2.382-5.53-3.693-8.864-3.693-3.322 0-6.566 1.329-8.91 3.647-2.436 2.364-3.832 5.607-3.832 8.911v17.154c0 1.117-0.281 2.109-0.75 2.651l-0.045 0.053c-0.116 0.138-0.426 0.504-1.486 0.504-0.979 0-1.791-0.317-2.477-0.969l-0.065-0.06c-0.502-0.464-0.756-1.15-0.756-2.04v-17.293c0-3.334-1.312-6.483-3.695-8.865l-0.093-0.092c-2.42-2.322-5.567-3.601-8.863-3.601-3.285 0-6.515 1.346-8.863 3.693-2.382 2.382-3.693 5.531-3.693 8.865v17.154c0 7.519 2.974 14.636 8.376 20.037 5.401 5.402 12.55 8.377 20.129 8.377 7.561 0 14.576-3.022 19.727-8.485" fill="#ffc519" />
    </g>
<g transform="translate(2660 1418.6)">
    <path d="m0 0v-17.155c0-1.117 0.28-2.108 0.75-2.651l0.046-0.054c0.116-0.138 0.426-0.503 1.483-0.503 0.982 0 1.792 0.318 2.48 0.969l0.063 0.06c0.503 0.464 0.758 1.151 0.758 2.04v17.294c0 3.335 1.312 6.483 3.694 8.865l0.093 0.091c2.419 2.322 5.567 3.601 8.862 3.601 3.286 0 6.517-1.347 8.863-3.692 2.382-2.382 3.694-5.53 3.694-8.865v-17.155c0-7.519-2.974-14.636-8.376-20.038-5.402-5.401-12.552-8.376-20.131-8.376-7.559 0-14.573 3.023-19.725 8.485-5.004 5.247-7.761 12.324-7.761 19.929v17.155c0 3.394 1.279 6.542 3.601 8.864 2.381 2.381 5.529 3.693 8.863 3.693 3.323 0 6.567-1.329 8.91-3.647 2.437-2.364 3.833-5.607 3.833-8.91" fill="#f3703a" />
</g>
<g transform="translate(2714 1437.9)">
        <path d="m0 0c5.005-5.245 7.761-12.322 7.761-19.929v-17.154c0-3.395-1.28-6.542-3.601-8.865-2.383-2.382-5.53-3.693-8.864-3.693-3.322 0-6.566 1.329-8.91 3.647-2.436 2.364-3.832 5.607-3.832 8.911v17.154c0 1.117-0.281 2.109-0.75 2.651l-0.045 0.053c-0.116 0.138-0.426 0.504-1.486 0.504-0.979 0-1.791-0.317-2.477-0.969l-0.065-0.06c-0.502-0.464-0.756-1.15-0.756-2.04v-17.293c0-3.334-1.312-6.483-3.695-8.865l-0.093-0.092c-2.42-2.322-5.567-3.601-8.863-3.601-3.285 0-6.515 1.346-8.863 3.693-2.382 2.382-3.693 5.531-3.693 8.865v17.154c0 7.519 2.974 14.636 8.376 20.037 5.401 5.402 12.55 8.377 20.129 8.377 7.561 0 14.576-3.022 19.727-8.485" fill="#e11d43" />
    </g>
<g transform="translate(2722 1418.6)">
    <path d="m0 0v-17.155c0-1.117 0.28-2.108 0.75-2.651l0.046-0.054c0.116-0.138 0.426-0.503 1.483-0.503 0.982 0 1.792 0.318 2.48 0.969l0.063 0.06c0.503 0.464 0.758 1.151 0.758 2.04v17.294c0 3.335 1.312 6.483 3.694 8.865l0.093 0.091c2.419 2.322 5.567 3.601 8.862 3.601 3.286 0 6.517-1.347 8.863-3.692 2.382-2.382 3.694-5.53 3.694-8.865v-17.155c0-7.519-2.974-14.636-8.376-20.038-5.402-5.401-12.552-8.376-20.131-8.376-7.559 0-14.573 3.023-19.725 8.485-5.004 5.247-7.761 12.324-7.761 19.929v17.155c0 3.394 1.279 6.542 3.601 8.864 2.381 2.381 5.529 3.693 8.863 3.693 3.323 0 6.567-1.329 8.91-3.647 2.437-2.364 3.833-5.607 3.833-8.91" fill="#5b57a6" />
</g>
<g transform="translate(2776 1437.9)">
        <path d="m0 0c5.005-5.245 7.761-12.322 7.761-19.929v-17.154c0-3.395-1.28-6.542-3.601-8.865-2.383-2.382-5.53-3.693-8.864-3.693-3.322 0-6.566 1.329-8.91 3.647-2.436 2.364-3.832 5.607-3.832 8.911v17.154c0 1.117-0.281 2.109-0.75 2.651l-0.045 0.053c-0.116 0.138-0.426 0.504-1.486 0.504-0.979 0-1.791-0.317-2.477-0.969l-0.065-0.06c-0.502-0.464-0.756-1.15-0.756-2.04v-17.293c0-3.334-1.312-6.483-3.695-8.865l-0.093-0.092c-2.42-2.322-5.567-3.601-8.863-3.601-3.285 0-6.515 1.346-8.863 3.693-2.382 2.382-3.693 5.531-3.693 8.865v17.154c0 7.519 2.974 14.636 8.376 20.037 5.401 5.402 12.55 8.377 20.129 8.377 7.561 0 14.576-3.022 19.727-8.485" fill="#00b25a" />
    </g>
<g transform="translate(2784 1418.6)">
    <path d="m0 0v-17.155c0-1.117 0.28-2.108 0.75-2.651l0.046-0.054c0.116-0.138 0.426-0.503 1.483-0.503 0.982 0 1.792 0.318 2.48 0.969l0.063 0.06c0.503 0.464 0.758 1.151 0.758 2.04v17.294c0 3.335 1.312 6.483 3.694 8.865l0.093 0.091c2.419 2.322 5.567 3.601 8.862 3.601 3.286 0 6.517-1.347 8.863-3.692 2.382-2.382 3.694-5.53 3.694-8.865v-17.155c0-7.519-2.974-14.636-8.376-20.038-5.402-5.401-12.552-8.376-20.131-8.376-7.559 0-14.573 3.023-19.725 8.485-5.004 5.247-7.761 12.324-7.761 19.929v17.155c0 3.394 1.279 6.542 3.601 8.864 2.381 2.381 5.529 3.693 8.863 3.693 3.323 0 6.567-1.329 8.91-3.647 2.437-2.364 3.833-5.607 3.833-8.91" fill="#ffc519" />
</g>
<g transform="translate(2838 1437.9)">
        <path d="m0 0c5.005-5.245 7.761-12.322 7.761-19.929v-17.154c0-3.395-1.28-6.542-3.601-8.865-2.383-2.382-5.53-3.693-8.864-3.693-3.322 0-6.566 1.329-8.91 3.647-2.436 2.364-3.832 5.607-3.832 8.911v17.154c0 1.117-0.281 2.109-0.75 2.651l-0.045 0.053c-0.116 0.138-0.426 0.504-1.486 0.504-0.979 0-1.791-0.317-2.477-0.969l-0.065-0.06c-0.502-0.464-0.756-1.15-0.756-2.04v-17.293c0-3.334-1.312-6.483-3.695-8.865l-0.093-0.092c-2.42-2.322-5.567-3.601-8.863-3.601-3.285 0-6.515 1.346-8.863 3.693-2.382 2.382-3.693 5.531-3.693 8.865v17.154c0 7.519 2.974 14.636 8.376 20.037 5.401 5.402 12.55 8.377 20.129 8.377 7.561 0 14.576-3.022 19.727-8.485" fill="#f3703a" />
    </g>
<g transform="translate(2846 1418.6)">
    <path d="m0 0v-17.155c0-1.117 0.28-2.108 0.75-2.651l0.046-0.054c0.116-0.138 0.426-0.503 1.483-0.503 0.982 0 1.792 0.318 2.48 0.969l0.063 0.06c0.503 0.464 0.758 1.151 0.758 2.04v17.294c0 3.335 1.312 6.483 3.694 8.865l0.093 0.091c2.419 2.322 5.567 3.601 8.862 3.601 3.286 0 6.517-1.347 8.863-3.692 2.382-2.382 3.694-5.53 3.694-8.865v-17.155c0-7.519-2.974-14.636-8.376-20.038-5.402-5.401-12.552-8.376-20.131-8.376-7.559 0-14.573 3.023-19.725 8.485-5.004 5.247-7.761 12.324-7.761 19.929v17.155c0 3.394 1.279 6.542 3.601 8.864 2.381 2.381 5.529 3.693 8.863 3.693 3.323 0 6.567-1.329 8.91-3.647 2.437-2.364 3.833-5.607 3.833-8.91" fill="#e11d43" />
</g>
<g transform="translate(2900 1437.9)">
        <path d="m0 0c5.005-5.245 7.761-12.322 7.761-19.929v-17.154c0-3.395-1.28-6.542-3.601-8.865-2.383-2.382-5.53-3.693-8.864-3.693-3.322 0-6.566 1.329-8.91 3.647-2.436 2.364-3.832 5.607-3.832 8.911v17.154c0 1.117-0.281 2.109-0.75 2.651l-0.045 0.053c-0.116 0.138-0.426 0.504-1.486 0.504-0.979 0-1.791-0.317-2.477-0.969l-0.065-0.06c-0.502-0.464-0.756-1.15-0.756-2.04v-17.293c0-3.334-1.312-6.483-3.695-8.865l-0.093-0.092c-2.42-2.322-5.567-3.601-8.863-3.601-3.285 0-6.515 1.346-8.863 3.693-2.382 2.382-3.693 5.531-3.693 8.865v17.154c0 7.519 2.974 14.636 8.376 20.037 5.401 5.402 12.55 8.377 20.129 8.377 7.561 0 14.576-3.022 19.727-8.485" fill="#5b57a6" />
    </g>
<g transform="translate(2908 1418.6)">
    <path d="m0 0v-17.155c0-1.117 0.28-2.108 0.75-2.651l0.046-0.054c0.116-0.138 0.426-0.503 1.483-0.503 0.982 0 1.792 0.318 2.48 0.969l0.063 0.06c0.503 0.464 0.758 1.151 0.758 2.04v17.294c0 3.335 1.312 6.483 3.694 8.865l0.093 0.091c2.419 2.322 5.567 3.601 8.862 3.601 3.286 0 6.517-1.347 8.863-3.692 2.382-2.382 3.694-5.53 3.694-8.865v-17.155c0-7.519-2.974-14.636-8.376-20.038-5.402-5.401-12.552-8.376-20.131-8.376-7.559 0-14.573 3.023-19.725 8.485-5.004 5.247-7.761 12.324-7.761 19.929v17.155c0 3.394 1.279 6.542 3.601 8.864 2.381 2.381 5.529 3.693 8.863 3.693 3.323 0 6.567-1.329 8.91-3.647 2.437-2.364 3.833-5.607 3.833-8.91" fill="#00b25a" />
</g>
<g transform="translate(2962 1437.9)">
        <path d="m0 0c5.005-5.245 7.761-12.322 7.761-19.929v-17.154c0-3.395-1.28-6.542-3.601-8.865-2.383-2.382-5.53-3.693-8.864-3.693-3.322 0-6.566 1.329-8.91 3.647-2.436 2.364-3.832 5.607-3.832 8.911v17.154c0 1.117-0.281 2.109-0.75 2.651l-0.045 0.053c-0.116 0.138-0.426 0.504-1.486 0.504-0.979 0-1.791-0.317-2.477-0.969l-0.065-0.06c-0.502-0.464-0.756-1.15-0.756-2.04v-17.293c0-3.334-1.312-6.483-3.695-8.865l-0.093-0.092c-2.42-2.322-5.567-3.601-8.863-3.601-3.285 0-6.515 1.346-8.863 3.693-2.382 2.382-3.693 5.531-3.693 8.865v17.154c0 7.519 2.974 14.636 8.376 20.037 5.401 5.402 12.55 8.377 20.129 8.377 7.561 0 14.576-3.022 19.727-8.485" fill="#ffc519" />
    </g>
<g transform="translate(2970 1418.6)">
    <path d="m0 0v-17.155c0-1.117 0.28-2.108 0.75-2.651l0.046-0.054c0.116-0.138 0.426-0.503 1.483-0.503 0.982 0 1.792 0.318 2.48 0.969l0.063 0.06c0.503 0.464 0.758 1.151 0.758 2.04v17.294c0 3.335 1.312 6.483 3.694 8.865l0.093 0.091c2.419 2.322 5.567 3.601 8.862 3.601 3.286 0 6.517-1.347 8.863-3.692 2.382-2.382 3.694-5.53 3.694-8.865v-17.155c0-7.519-2.974-14.636-8.376-20.038-5.402-5.401-12.552-8.376-20.131-8.376-7.559 0-14.573 3.023-19.725 8.485-5.004 5.247-7.761 12.324-7.761 19.929v17.155c0 3.394 1.279 6.542 3.601 8.864 2.381 2.381 5.529 3.693 8.863 3.693 3.323 0 6.567-1.329 8.91-3.647 2.437-2.364 3.833-5.607 3.833-8.91" fill="#f3703a" />
</g>
<g transform="translate(3024 1437.9)">
        <path d="m0 0c5.005-5.245 7.761-12.322 7.761-19.929v-17.154c0-3.395-1.28-6.542-3.601-8.865-2.383-2.382-5.53-3.693-8.864-3.693-3.322 0-6.566 1.329-8.91 3.647-2.436 2.364-3.832 5.607-3.832 8.911v17.154c0 1.117-0.281 2.109-0.75 2.651l-0.045 0.053c-0.116 0.138-0.426 0.504-1.486 0.504-0.979 0-1.791-0.317-2.477-0.969l-0.065-0.06c-0.502-0.464-0.756-1.15-0.756-2.04v-17.293c0-3.334-1.312-6.483-3.695-8.865l-0.093-0.092c-2.42-2.322-5.567-3.601-8.863-3.601-3.285 0-6.515 1.346-8.863 3.693-2.382 2.382-3.693 5.531-3.693 8.865v17.154c0 7.519 2.974 14.636 8.376 20.037 5.401 5.402 12.55 8.377 20.129 8.377 7.561 0 14.576-3.022 19.727-8.485" fill="#e11d43" />
    </g>
<g transform="translate(3032 1418.6)">
    <path d="m0 0v-17.155c0-1.117 0.28-2.108 0.75-2.651l0.046-0.054c0.116-0.138 0.426-0.503 1.483-0.503 0.982 0 1.792 0.318 2.48 0.969l0.063 0.06c0.503 0.464 0.758 1.151 0.758 2.04v17.294c0 3.335 1.312 6.483 3.694 8.865l0.093 0.091c2.419 2.322 5.567 3.601 8.862 3.601 3.286 0 6.517-1.347 8.863-3.692 2.382-2.382 3.694-5.53 3.694-8.865v-17.155c0-7.519-2.974-14.636-8.376-20.038-5.402-5.401-12.552-8.376-20.131-8.376-7.559 0-14.573 3.023-19.725 8.485-5.004 5.247-7.761 12.324-7.761 19.929v17.155c0 3.394 1.279 6.542 3.601 8.864 2.381 2.381 5.529 3.693 8.863 3.693 3.323 0 6.567-1.329 8.91-3.647 2.437-2.364 3.833-5.607 3.833-8.91" fill="#5b57a6" />
</g>
<g transform="translate(3086 1437.9)">
        <path d="m0 0c5.005-5.245 7.761-12.322 7.761-19.929v-17.154c0-3.395-1.28-6.542-3.601-8.865-2.383-2.382-5.53-3.693-8.864-3.693-3.322 0-6.566 1.329-8.91 3.647-2.436 2.364-3.832 5.607-3.832 8.911v17.154c0 1.117-0.281 2.109-0.75 2.651l-0.045 0.053c-0.116 0.138-0.426 0.504-1.486 0.504-0.979 0-1.791-0.317-2.477-0.969l-0.065-0.06c-0.502-0.464-0.756-1.15-0.756-2.04v-17.293c0-3.334-1.312-6.483-3.695-8.865l-0.093-0.092c-2.42-2.322-5.567-3.601-8.863-3.601-3.285 0-6.515 1.346-8.863 3.693-2.382 2.382-3.693 5.531-3.693 8.865v17.154c0 7.519 2.974 14.636 8.376 20.037 5.401 5.402 12.55 8.377 20.129 8.377 7.561 0 14.576-3.022 19.727-8.485" fill="#00b25a" />
    </g>
<g transform="translate(3094 1418.6)">
    <path d="m0 0v-17.155c0-1.117 0.28-2.108 0.75-2.651l0.046-0.054c0.116-0.138 0.426-0.503 1.483-0.503 0.982 0 1.792 0.318 2.48 0.969l0.063 0.06c0.503 0.464 0.758 1.151 0.758 2.04v17.294c0 3.335 1.312 6.483 3.694 8.865l0.093 0.091c2.419 2.322 5.567 3.601 8.862 3.601 3.286 0 6.517-1.347 8.863-3.692 2.382-2.382 3.694-5.53 3.694-8.865v-17.155c0-7.519-2.974-14.636-8.376-20.038-5.402-5.401-12.552-8.376-20.131-8.376-7.559 0-14.573 3.023-19.725 8.485-5.004 5.247-7.761 12.324-7.761 19.929v17.155c0 3.394 1.279 6.542 3.601 8.864 2.381 2.381 5.529 3.693 8.863 3.693 3.323 0 6.567-1.329 8.91-3.647 2.437-2.364 3.833-5.607 3.833-8.91" fill="#ffc519" />
</g>
<g transform="translate(3148 1437.9)">
        <path d="m0 0c5.005-5.245 7.761-12.322 7.761-19.929v-17.154c0-3.395-1.28-6.542-3.601-8.865-2.383-2.382-5.53-3.693-8.864-3.693-3.322 0-6.566 1.329-8.91 3.647-2.436 2.364-3.832 5.607-3.832 8.911v17.154c0 1.117-0.281 2.109-0.75 2.651l-0.045 0.053c-0.116 0.138-0.426 0.504-1.486 0.504-0.979 0-1.791-0.317-2.477-0.969l-0.065-0.06c-0.502-0.464-0.756-1.15-0.756-2.04v-17.293c0-3.334-1.312-6.483-3.695-8.865l-0.093-0.092c-2.42-2.322-5.567-3.601-8.863-3.601-3.285 0-6.515 1.346-8.863 3.693-2.382 2.382-3.693 5.531-3.693 8.865v17.154c0 7.519 2.974 14.636 8.376 20.037 5.401 5.402 12.55 8.377 20.129 8.377 7.561 0 14.576-3.022 19.727-8.485" fill="#f3703a" />
    </g>
<g transform="translate(3156 1418.6)">
    <path d="m0 0v-17.155c0-1.117 0.28-2.108 0.75-2.651l0.046-0.054c0.116-0.138 0.426-0.503 1.483-0.503 0.982 0 1.792 0.318 2.48 0.969l0.063 0.06c0.503 0.464 0.758 1.151 0.758 2.04v17.294c0 3.335 1.312 6.483 3.694 8.865l0.093 0.091c2.419 2.322 5.567 3.601 8.862 3.601 3.286 0 6.517-1.347 8.863-3.692 2.382-2.382 3.694-5.53 3.694-8.865v-17.155c0-7.519-2.974-14.636-8.376-20.038-5.402-5.401-12.552-8.376-20.131-8.376-7.559 0-14.573 3.023-19.725 8.485-5.004 5.247-7.761 12.324-7.761 19.929v17.155c0 3.394 1.279 6.542 3.601 8.864 2.381 2.381 5.529 3.693 8.863 3.693 3.323 0 6.567-1.329 8.91-3.647 2.437-2.364 3.833-5.607 3.833-8.91" fill="#e11d43" />
</g>
<g transform="translate(3210 1437.9)">
        <path d="m0 0c5.005-5.245 7.761-12.322 7.761-19.929v-17.154c0-3.395-1.28-6.542-3.601-8.865-2.383-2.382-5.53-3.693-8.864-3.693-3.322 0-6.566 1.329-8.91 3.647-2.436 2.364-3.832 5.607-3.832 8.911v17.154c0 1.117-0.281 2.109-0.75 2.651l-0.045 0.053c-0.116 0.138-0.426 0.504-1.486 0.504-0.979 0-1.791-0.317-2.477-0.969l-0.065-0.06c-0.502-0.464-0.756-1.15-0.756-2.04v-17.293c0-3.334-1.312-6.483-3.695-8.865l-0.093-0.092c-2.42-2.322-5.567-3.601-8.863-3.601-3.285 0-6.515 1.346-8.863 3.693-2.382 2.382-3.693 5.531-3.693 8.865v17.154c0 7.519 2.974 14.636 8.376 20.037 5.401 5.402 12.55 8.377 20.129 8.377 7.561 0 14.576-3.022 19.727-8.485" fill="#5b57a6" />
    </g>
<g transform="translate(3218 1418.6)">
    <path d="m0 0v-17.155c0-1.117 0.28-2.108 0.75-2.651l0.046-0.054c0.116-0.138 0.426-0.503 1.483-0.503 0.982 0 1.792 0.318 2.48 0.969l0.063 0.06c0.503 0.464 0.758 1.151 0.758 2.04v17.294c0 3.335 1.312 6.483 3.694 8.865l0.093 0.091c2.419 2.322 5.567 3.601 8.862 3.601 3.286 0 6.517-1.347 8.863-3.692 2.382-2.382 3.694-5.53 3.694-8.865v-17.155c0-7.519-2.974-14.636-8.376-20.038-5.402-5.401-12.552-8.376-20.131-8.376-7.559 0-14.573 3.023-19.725 8.485-5.004 5.247-7.761 12.324-7.761 19.929v17.155c0 3.394 1.279 6.542 3.601 8.864 2.381 2.381 5.529 3.693 8.863 3.693 3.323 0 6.567-1.329 8.91-3.647 2.437-2.364 3.833-5.607 3.833-8.91" fill="#00b25a" />
</g>
<g transform="translate(3248 1417.9)">
<path d="m0 0c0 0.98 0.316 1.791 0.968 2.477l0.059 0.064c0.464 0.502 1.15 0.757 2.038 0.757h17.282c3.333 0 6.478 1.311 8.858 3.692l0.09 0.093c2.32 2.417 3.599 5.562 3.599 8.855 0 3.283-1.345 6.511-3.689 8.855-2.38 2.381-5.525 3.692-8.858 3.692h-17.143c-7.513 0-14.624-2.972-20.022-8.37s-8.369-12.541-8.369-20.115c0-7.554 3.02-14.563 8.477-19.71" fill="#00b25a" />
</g>
</g></svg>
